<svg width="670" height="712" viewBox="0 0 670 712" fill="none" xmlns="http://www.w3.org/2000/svg">
<path d="M89.3014 42.373H32.5026V60.4497H89.3014V42.373Z" fill="#EBEBEB"/>
<path d="M638.227 204.256H579.813V184.564H638.227V204.256ZM581.428 202.64H636.611V186.179H581.428V202.64Z" fill="#EBEBEB"/>
<path d="M57.6226 19.5792C48.1885 19.7407 24.0054 20.1446 14.8943 20.2576H0.82387L1.56697 19.5145V37.5913L0.759251 36.7836C10.1934 36.7836 34.2473 36.9128 43.3583 37.042L57.558 37.2197L57.1703 37.5913L57.558 19.5145L57.6226 19.5792ZM57.6226 19.5792L57.9942 37.6559V38.0436H57.6065C50.5147 38.1405 36.2827 38.3021 29.2071 38.3505L0.807719 38.4636H0V37.6559V19.5792V18.8522H0.726942H15.0559C24.1023 18.9491 48.1723 19.353 57.5257 19.5145L57.6226 19.5792Z" fill="#EBEBEB"/>
<path d="M152.546 450.61C143.112 450.772 118.912 451.176 109.817 451.289H95.747L96.4739 450.545V468.622L95.6662 467.814C105.1 467.814 129.154 467.944 138.265 468.073L152.465 468.251L152.077 468.622L152.465 450.545L152.546 450.61ZM152.546 450.61L152.917 468.687V469.075H152.53C145.438 469.171 131.206 469.333 124.13 469.398L95.7308 469.495H94.9231V468.671V450.594V449.867H95.6662H109.995C119.042 449.964 143.112 450.384 152.465 450.529L152.546 450.61Z" fill="#EBEBEB"/>
<path d="M120.851 427.816C111.417 427.978 87.2336 428.382 78.1387 428.495H64.0682L64.7952 427.752V445.828L63.9875 445.021C73.4055 445.021 97.4593 445.15 106.57 445.279L120.77 445.457L120.399 445.828L120.77 427.752L120.851 427.816ZM120.851 427.816L121.239 445.893V446.281H120.835C113.759 446.378 99.5271 446.539 92.4353 446.604L64.0521 446.701H63.2444V445.877V427.8V427.073H63.9875H78.3002C87.3628 427.17 111.433 427.59 120.77 427.735L120.851 427.816Z" fill="#EBEBEB"/>
<path d="M89.3014 450.61H32.5026V468.687H89.3014V450.61Z" fill="#EBEBEB"/>
<path d="M669.098 19.5792H612.299V37.6559H669.098V19.5792Z" fill="#EBEBEB"/>
<path d="M637.419 652.766H580.62V670.843H637.419V652.766Z" fill="#EBEBEB"/>
<path d="M669.098 629.972C659.664 630.134 635.481 630.537 626.37 630.651H612.299L613.042 629.907V647.984L612.235 647.176C621.669 647.176 645.723 647.29 654.834 647.435L669.033 647.596L668.646 647.984L669.033 629.907L669.098 629.972ZM669.098 629.972L669.486 648.049V648.436H669.098C662.006 648.533 647.79 648.695 640.699 648.743L612.299 648.857H611.491V648.097L611.572 630.021V629.277H612.299H626.628C635.674 629.374 659.761 629.778 669.098 629.94V629.972Z" fill="#EBEBEB"/>
<path d="M57.6226 652.766C48.1885 652.927 24.0054 653.331 14.8943 653.428L0.82387 653.509L1.56697 652.766V670.843L0.759251 670.035C10.1934 670.035 34.2473 670.148 43.3583 670.277L57.558 670.455L57.1703 670.843L57.558 652.766H57.6226ZM57.6226 652.766L57.9942 670.843V671.23H57.6065C50.5147 671.327 36.2827 671.489 29.2071 671.537L0.807719 671.65H0V670.843V652.766V652.023H0.726942H15.0559C24.1023 652.12 48.1723 652.524 57.5257 652.685L57.6226 652.766Z" fill="#EBEBEB"/>
<path d="M661.635 14.2644H279.164V290.569H661.635V14.2644Z" fill="white"/>
<path d="M666.319 295.254H274.479V9.56345H666.319V295.254ZM283.848 285.868H657.014V18.9491H283.848V285.868Z" fill="#EBEBEB"/>
<path d="M560.444 219.813C560.291 219.815 560.14 219.776 560.007 219.7L539.734 208.004C539.598 207.924 539.486 207.811 539.407 207.675C539.327 207.539 539.284 207.385 539.281 207.228V183.821C539.283 183.663 539.325 183.509 539.405 183.373C539.484 183.237 539.597 183.124 539.734 183.045L560.007 171.333C560.142 171.254 560.295 171.212 560.452 171.212C560.608 171.212 560.761 171.254 560.896 171.333L581.17 183.045C581.306 183.124 581.419 183.237 581.499 183.373C581.578 183.509 581.621 183.663 581.622 183.821V207.228C581.619 207.385 581.576 207.539 581.497 207.675C581.418 207.811 581.305 207.924 581.17 208.004L560.896 219.7C560.758 219.778 560.602 219.817 560.444 219.813ZM541.058 206.711L560.444 217.89L579.829 206.711V184.338L560.444 173.143L541.058 184.338V206.711Z" fill="#EBEBEB"/>
<path d="M600.991 219.813C600.833 219.816 600.677 219.777 600.539 219.7L580.281 208.004C580.144 207.926 580.029 207.814 579.95 207.677C579.87 207.541 579.829 207.386 579.829 207.228V183.821C579.827 183.663 579.868 183.507 579.948 183.37C580.027 183.234 580.143 183.121 580.281 183.045L600.539 171.333C600.676 171.254 600.832 171.212 600.991 171.212C601.15 171.212 601.306 171.254 601.443 171.333L621.701 183.045C621.84 183.121 621.955 183.234 622.035 183.37C622.114 183.507 622.155 183.663 622.153 183.821V207.228C622.154 207.386 622.112 207.541 622.032 207.677C621.953 207.814 621.838 207.926 621.701 208.004L601.508 219.7C601.351 219.789 601.171 219.828 600.991 219.813ZM581.606 206.711L600.991 217.89L620.376 206.711V184.338L600.991 173.143L581.606 184.338V206.711Z" fill="#EBEBEB"/>
<path d="M600.991 173.013C600.873 173.013 600.756 172.99 600.647 172.944C600.538 172.899 600.44 172.832 600.357 172.747C600.274 172.663 600.209 172.563 600.166 172.454C600.122 172.344 600.1 172.227 600.103 172.109V158.216C600.103 157.98 600.196 157.754 600.363 157.588C600.529 157.421 600.755 157.327 600.991 157.327C601.227 157.327 601.453 157.421 601.619 157.588C601.786 157.754 601.88 157.98 601.88 158.216V172.109C601.882 172.227 601.86 172.344 601.817 172.454C601.773 172.563 601.708 172.663 601.625 172.747C601.542 172.832 601.444 172.899 601.335 172.944C601.226 172.99 601.109 173.013 600.991 173.013Z" fill="#EBEBEB"/>
<path d="M621.265 184.709C621.102 184.713 620.942 184.67 620.802 184.588C620.662 184.505 620.548 184.385 620.473 184.241C620.363 184.032 620.338 183.789 620.405 183.563C620.471 183.336 620.623 183.145 620.829 183.029L632.621 176.567C632.724 176.511 632.837 176.475 632.954 176.462C633.07 176.449 633.189 176.459 633.301 176.492C633.414 176.525 633.519 176.58 633.61 176.654C633.701 176.728 633.777 176.819 633.833 176.923C633.89 177.025 633.926 177.138 633.938 177.255C633.951 177.372 633.941 177.49 633.908 177.603C633.875 177.715 633.82 177.82 633.746 177.912C633.672 178.003 633.581 178.079 633.478 178.134L621.685 184.596C621.558 184.673 621.413 184.712 621.265 184.709Z" fill="#EBEBEB"/>
<path d="M543.869 205.468C543.632 205.463 543.406 205.366 543.24 205.197C543.074 205.028 542.981 204.8 542.981 204.563V186.728C542.981 186.493 543.074 186.267 543.241 186.1C543.408 185.934 543.634 185.84 543.869 185.84C544.105 185.84 544.331 185.934 544.498 186.1C544.664 186.267 544.758 186.493 544.758 186.728V204.595C544.753 204.828 544.658 205.05 544.492 205.213C544.326 205.376 544.102 205.468 543.869 205.468Z" fill="#EBEBEB"/>
<path d="M585.709 205.468C585.591 205.468 585.474 205.444 585.365 205.398C585.256 205.353 585.158 205.286 585.075 205.202C584.992 205.117 584.927 205.017 584.883 204.908C584.84 204.798 584.818 204.681 584.821 204.563V186.728C584.821 186.493 584.914 186.267 585.081 186.1C585.247 185.934 585.473 185.84 585.709 185.84C585.945 185.84 586.171 185.934 586.337 186.1C586.504 186.267 586.598 186.493 586.598 186.728V204.595C586.593 204.828 586.498 205.05 586.332 205.213C586.165 205.376 585.942 205.468 585.709 205.468Z" fill="#EBEBEB"/>
<path d="M576.598 186.664C576.437 186.669 576.279 186.623 576.146 186.535L560.702 177.553C560.499 177.435 560.351 177.241 560.29 177.014C560.23 176.787 560.262 176.545 560.379 176.341C560.436 176.237 560.513 176.145 560.607 176.072C560.701 175.998 560.808 175.945 560.923 175.915C561.038 175.884 561.158 175.878 561.276 175.896C561.393 175.914 561.506 175.955 561.607 176.018L577.05 185C577.253 185.118 577.401 185.312 577.462 185.539C577.523 185.766 577.491 186.008 577.373 186.212C577.295 186.348 577.182 186.461 577.046 186.541C576.91 186.62 576.755 186.662 576.598 186.664Z" fill="#EBEBEB"/>
<path d="M616.871 186.664C616.71 186.669 616.552 186.623 616.419 186.535L600.975 177.553C600.873 177.496 600.783 177.419 600.711 177.327C600.639 177.234 600.587 177.128 600.557 177.015C600.526 176.902 600.519 176.784 600.536 176.669C600.552 176.553 600.592 176.441 600.652 176.341C600.709 176.239 600.786 176.149 600.878 176.077C600.97 176.006 601.076 175.953 601.189 175.923C601.302 175.893 601.42 175.886 601.536 175.902C601.652 175.918 601.763 175.958 601.863 176.018L617.307 185C617.457 185.104 617.572 185.253 617.635 185.425C617.698 185.597 617.706 185.784 617.658 185.961C617.61 186.138 617.509 186.296 617.368 186.413C617.227 186.53 617.053 186.601 616.871 186.615V186.664Z" fill="#EBEBEB"/>
<path d="M497.264 168.49C497.106 168.491 496.95 168.452 496.812 168.377L476.554 156.681C476.419 156.601 476.306 156.488 476.227 156.352C476.148 156.217 476.105 156.063 476.102 155.906V132.498C476.103 132.341 476.145 132.186 476.225 132.05C476.304 131.914 476.418 131.802 476.554 131.723L496.812 120.011C496.951 119.939 497.106 119.901 497.264 119.901C497.421 119.901 497.576 119.939 497.716 120.011L517.99 131.723C518.124 131.802 518.235 131.916 518.312 132.052C518.389 132.188 518.428 132.342 518.426 132.498V155.906C518.426 156.062 518.386 156.215 518.31 156.351C518.233 156.487 518.123 156.601 517.99 156.681L497.716 168.312C497.585 168.413 497.428 168.474 497.264 168.49ZM477.879 155.389L497.264 166.568L516.649 155.389V133.015L497.264 121.82L477.879 133.015V155.389Z" fill="#EBEBEB"/>
<path d="M497.264 121.691C497.027 121.687 496.801 121.59 496.635 121.42C496.468 121.251 496.375 121.023 496.375 120.786V106.926C496.375 106.69 496.469 106.464 496.636 106.298C496.802 106.131 497.028 106.037 497.264 106.037C497.494 106.046 497.712 106.143 497.871 106.309C498.031 106.474 498.12 106.696 498.12 106.926V120.819C498.116 121.046 498.025 121.263 497.866 121.425C497.707 121.588 497.491 121.683 497.264 121.691Z" fill="#EBEBEB"/>
<path d="M535.776 118.557C535.54 118.557 535.314 118.463 535.148 118.297C534.981 118.13 534.887 117.904 534.887 117.669V103.776C534.885 103.658 534.907 103.542 534.951 103.433C534.994 103.324 535.06 103.226 535.143 103.143C535.226 103.06 535.325 102.994 535.433 102.95C535.542 102.907 535.659 102.885 535.776 102.887C536.012 102.887 536.238 102.981 536.404 103.147C536.571 103.314 536.664 103.54 536.664 103.776V117.669C536.664 117.904 536.571 118.13 536.404 118.297C536.238 118.463 536.012 118.557 535.776 118.557Z" fill="#EBEBEB"/>
<path d="M517.505 133.387C517.343 133.39 517.183 133.348 517.043 133.265C516.903 133.183 516.789 133.062 516.714 132.918C516.607 132.709 516.585 132.467 516.651 132.242C516.717 132.017 516.867 131.825 517.069 131.707L528.862 125.245C528.965 125.188 529.078 125.152 529.194 125.139C529.311 125.127 529.429 125.137 529.542 125.17C529.654 125.203 529.759 125.258 529.851 125.332C529.942 125.406 530.018 125.497 530.073 125.6C530.13 125.703 530.166 125.816 530.179 125.933C530.192 126.049 530.181 126.168 530.148 126.28C530.115 126.393 530.06 126.498 529.986 126.589C529.912 126.68 529.821 126.756 529.718 126.812L517.925 133.274C517.799 133.351 517.653 133.39 517.505 133.387Z" fill="#EBEBEB"/>
<path d="M553.756 133.387C553.608 133.39 553.462 133.351 553.336 133.274L541.543 126.812C541.44 126.756 541.348 126.68 541.275 126.589C541.201 126.498 541.146 126.393 541.113 126.28C541.08 126.168 541.069 126.049 541.082 125.933C541.095 125.816 541.131 125.703 541.188 125.6C541.243 125.497 541.319 125.406 541.41 125.332C541.502 125.258 541.607 125.203 541.719 125.17C541.832 125.137 541.95 125.127 542.067 125.139C542.183 125.152 542.296 125.188 542.399 125.245L554.192 131.707C554.397 131.822 554.549 132.014 554.616 132.24C554.682 132.467 554.658 132.71 554.547 132.918C554.472 133.062 554.358 133.183 554.218 133.265C554.078 133.348 553.918 133.39 553.756 133.387Z" fill="#EBEBEB"/>
<path d="M513.661 154.177C513.423 154.173 513.197 154.076 513.031 153.907C512.865 153.738 512.772 153.51 512.772 153.273V135.406C512.772 135.17 512.866 134.944 513.032 134.778C513.199 134.611 513.425 134.518 513.661 134.518C513.896 134.518 514.122 134.611 514.289 134.778C514.455 134.944 514.549 135.17 514.549 135.406V153.273C514.551 153.391 514.53 153.508 514.486 153.618C514.442 153.727 514.377 153.827 514.295 153.911C514.212 153.996 514.113 154.063 514.004 154.108C513.895 154.154 513.779 154.177 513.661 154.177Z" fill="#EBEBEB"/>
<path d="M481.513 135.341C481.357 135.342 481.204 135.302 481.068 135.225C480.932 135.149 480.819 135.039 480.738 134.905C480.677 134.804 480.638 134.691 480.621 134.574C480.604 134.457 480.611 134.338 480.641 134.223C480.672 134.109 480.724 134.002 480.796 133.908C480.868 133.814 480.958 133.736 481.061 133.677L496.505 124.696C496.719 124.578 496.971 124.55 497.206 124.618C497.441 124.686 497.639 124.845 497.757 125.059C497.874 125.273 497.902 125.526 497.834 125.76C497.766 125.995 497.607 126.193 497.393 126.311L481.966 135.228C481.827 135.303 481.671 135.342 481.513 135.341Z" fill="#EBEBEB"/>
<path d="M381.647 81.6927C381.495 81.6875 381.346 81.6489 381.211 81.5796L360.937 69.8677C360.801 69.789 360.687 69.6761 360.608 69.5401C360.529 69.4041 360.486 69.2497 360.485 69.0923V45.6846C360.488 45.5275 360.531 45.3738 360.61 45.2381C360.689 45.1023 360.802 44.9891 360.937 44.9092L381.211 33.2134C381.345 33.1339 381.499 33.0919 381.655 33.0919C381.811 33.0919 381.965 33.1339 382.099 33.2134L402.373 44.9092C402.506 44.9899 402.617 45.1037 402.693 45.2396C402.769 45.3755 402.81 45.5288 402.809 45.6846V69.0923C402.811 69.2485 402.772 69.4024 402.695 69.5385C402.619 69.6747 402.508 69.7882 402.373 69.8677L382.099 81.5796C381.958 81.6493 381.804 81.6878 381.647 81.6927ZM362.262 68.5754L381.647 79.7704L401.032 68.5754V46.2016L381.647 35.0227L362.262 46.2016V68.5754Z" fill="#EBEBEB"/>
<path d="M401.921 46.5893C401.76 46.5858 401.602 46.5409 401.464 46.4588C401.325 46.3768 401.21 46.2603 401.129 46.1208C401.023 45.9116 401 45.6697 401.067 45.4445C401.133 45.2193 401.282 45.0278 401.485 44.9092L413.277 38.4474C413.487 38.332 413.734 38.3046 413.965 38.3712C414.195 38.4378 414.389 38.5931 414.505 38.8028C414.611 39.0121 414.634 39.254 414.568 39.4791C414.502 39.7043 414.352 39.8958 414.15 40.0144L402.357 46.4762C402.221 46.5436 402.072 46.5821 401.921 46.5893Z" fill="#EBEBEB"/>
<path d="M365.896 67.3638C365.779 67.366 365.663 67.3445 365.554 67.3006C365.445 67.2567 365.346 67.1914 365.263 67.1084C365.18 67.0255 365.115 66.9267 365.071 66.8179C365.027 66.7091 365.006 66.5926 365.008 66.4753V48.6086C365.006 48.4913 365.027 48.3748 365.071 48.266C365.115 48.1572 365.18 48.0584 365.263 47.9754C365.346 47.8925 365.445 47.8271 365.554 47.7832C365.663 47.7394 365.779 47.7179 365.896 47.7201C366.132 47.7201 366.358 47.8137 366.525 47.9803C366.691 48.1469 366.785 48.3729 366.785 48.6086V66.5399C366.769 66.7642 366.668 66.9739 366.503 67.1268C366.338 67.2797 366.121 67.3644 365.896 67.3638Z" fill="#EBEBEB"/>
<path d="M397.963 48.5439C397.809 48.541 397.658 48.4963 397.527 48.4147L382.083 39.4329C381.979 39.376 381.887 39.2984 381.814 39.2049C381.74 39.1113 381.687 39.0037 381.657 38.8887C381.626 38.7737 381.62 38.6538 381.638 38.5362C381.656 38.4187 381.697 38.306 381.76 38.2051C381.878 38.002 382.072 37.854 382.299 37.7934C382.526 37.7328 382.768 37.7647 382.972 37.882L398.415 46.8639C398.62 46.9851 398.768 47.1818 398.828 47.4116C398.889 47.6413 398.856 47.8855 398.738 48.0916C398.661 48.2291 398.548 48.3434 398.412 48.4229C398.276 48.5024 398.121 48.5442 397.963 48.5439Z" fill="#EBEBEB"/>
<path d="M382.519 77.2664C382.337 77.2519 382.163 77.1812 382.022 77.0641C381.881 76.947 381.78 76.7892 381.732 76.6124C381.685 76.4355 381.693 76.2482 381.755 76.0761C381.818 75.904 381.933 75.7555 382.083 75.651L397.527 66.6692C397.627 66.6089 397.738 66.5694 397.854 66.553C397.97 66.5366 398.088 66.5437 398.201 66.5739C398.314 66.604 398.42 66.6566 398.512 66.7285C398.605 66.8003 398.681 66.89 398.738 66.9922C398.856 67.1983 398.889 67.4426 398.828 67.6723C398.768 67.902 398.62 68.0987 398.415 68.22L382.972 77.2018C382.829 77.2624 382.673 77.2847 382.519 77.2664Z" fill="#EBEBEB"/>
<path d="M604.319 101.821C604.159 101.818 604.004 101.773 603.867 101.692L583.593 89.9961C583.458 89.9166 583.347 89.803 583.271 89.6669C583.194 89.5308 583.155 89.3769 583.157 89.2207V65.813C583.155 65.6568 583.194 65.5029 583.271 65.3668C583.347 65.2306 583.458 65.1171 583.593 65.0376L603.867 53.3418C604.001 53.2622 604.154 53.2202 604.311 53.2202C604.467 53.2202 604.621 53.2622 604.755 53.3418L625.029 65.0376C625.165 65.1163 625.279 65.2292 625.358 65.3652C625.437 65.5012 625.48 65.6556 625.481 65.813V89.1561C625.48 89.3135 625.437 89.4678 625.358 89.6038C625.279 89.7398 625.165 89.8528 625.029 89.9315L604.739 101.692C604.613 101.771 604.468 101.815 604.319 101.821ZM584.934 88.7037L604.319 99.8987L623.704 88.7037V66.3299L604.319 55.1511L584.934 66.3299V88.7037Z" fill="#EBEBEB"/>
<path d="M624.576 66.7015C624.395 66.684 624.224 66.6113 624.085 66.4931C623.946 66.3749 623.847 66.2169 623.802 66.0406C623.756 65.8643 623.765 65.6782 623.829 65.5074C623.892 65.3367 624.007 65.1896 624.156 65.086L635.949 58.6243C636.163 58.5107 636.414 58.487 636.646 58.5582C636.877 58.6294 637.071 58.7897 637.185 59.0039C637.298 59.2181 637.322 59.4687 637.251 59.7004C637.18 59.9322 637.02 60.1262 636.805 60.2397L625.013 66.7015C624.869 66.733 624.72 66.733 624.576 66.7015Z" fill="#EBEBEB"/>
<path d="M588.585 87.5406C588.349 87.5406 588.123 87.447 587.956 87.2804C587.79 87.1137 587.696 86.8877 587.696 86.6521V68.7369C587.725 68.5198 587.832 68.3207 587.997 68.1765C588.162 68.0324 588.374 67.9529 588.593 67.9529C588.812 67.9529 589.023 68.0324 589.188 68.1765C589.353 68.3207 589.46 68.5198 589.489 68.7369V86.6036C589.493 86.7251 589.473 86.8463 589.43 86.9598C589.386 87.0733 589.32 87.1769 589.236 87.2643C589.151 87.3518 589.05 87.4213 588.938 87.4688C588.826 87.5163 588.706 87.5407 588.585 87.5406Z" fill="#EBEBEB"/>
<path d="M620.635 68.6561C620.477 68.6594 620.32 68.6203 620.182 68.5431L604.739 59.5612C604.633 59.5018 604.539 59.4221 604.464 59.3266C604.389 59.2312 604.333 59.1218 604.3 59.0048C604.267 58.8878 604.258 58.7654 604.272 58.6447C604.286 58.524 604.324 58.4073 604.383 58.3012C604.443 58.1951 604.523 58.1018 604.618 58.0265C604.714 57.9512 604.823 57.8955 604.94 57.8625C605.057 57.8295 605.179 57.8199 605.3 57.8342C605.421 57.8485 605.537 57.8864 605.644 57.9458L621.087 66.9276C621.288 67.0517 621.434 67.2484 621.494 67.4769C621.554 67.7054 621.524 67.9483 621.41 68.1553C621.339 68.3018 621.229 68.426 621.093 68.5143C620.956 68.6027 620.797 68.6517 620.635 68.6561Z" fill="#EBEBEB"/>
<path d="M605.191 97.3948C605.007 97.3831 604.832 97.3146 604.688 97.1987C604.545 97.0827 604.441 96.9251 604.392 96.7476C604.342 96.5701 604.349 96.3816 604.411 96.2081C604.473 96.0346 604.588 95.8848 604.739 95.7793L620.182 86.7975C620.283 86.7381 620.395 86.6991 620.511 86.6828C620.626 86.6665 620.744 86.6731 620.858 86.7024C620.971 86.7316 621.077 86.7829 621.171 86.8533C621.264 86.9237 621.343 87.0117 621.402 87.1125C621.462 87.2133 621.501 87.3248 621.517 87.4406C621.533 87.5564 621.527 87.6743 621.497 87.7876C621.468 87.9008 621.417 88.0072 621.346 88.1007C621.276 88.1941 621.188 88.2728 621.087 88.3322L605.644 97.2332C605.509 97.3255 605.353 97.3811 605.191 97.3948Z" fill="#EBEBEB"/>
<path d="M377.717 120.892L33.6852 165.024L93.8789 634.26L437.91 590.127L377.717 120.892Z" fill="#EBEBEB"/>
<path d="M78.6733 636.203L93.8792 634.253L33.6855 165.017L18.4796 166.968L78.6733 636.203Z" fill="#DBDBDB"/>
<path d="M377.721 120.884L33.6891 165.016L39.6972 211.852L383.729 167.719L377.721 120.884Z" fill="#DBDBDB"/>
<path d="M33.6683 165.016L18.4624 166.966L24.4705 213.802L39.6764 211.851L33.6683 165.016Z" fill="#A6A6A6"/>
<path d="M26.0275 213.602L25.2264 213.705L79.412 636.105L80.2132 636.002L26.0275 213.602Z" fill="#C7C7C7"/>
<path d="M27.8738 213.37L27.0727 213.472L81.2604 635.889L82.0615 635.786L27.8738 213.37Z" fill="#C7C7C7"/>
<path d="M29.7181 213.121L28.9169 213.224L83.1026 635.624L83.9037 635.521L29.7181 213.121Z" fill="#C7C7C7"/>
<path d="M32.0533 212.042L31.2537 212.147L86.6157 633.75L87.4153 633.645L32.0533 212.042Z" fill="#C7C7C7"/>
<path d="M33.8794 211.805L33.0798 211.91L88.4439 633.529L89.2435 633.424L33.8794 211.805Z" fill="#C7C7C7"/>
<path d="M35.2368 212.408L34.4356 212.511L88.6233 634.927L89.4245 634.824L35.2368 212.408Z" fill="#C7C7C7"/>
<path d="M37.081 212.176L36.2799 212.278L90.4655 634.679L91.2667 634.576L37.081 212.176Z" fill="#C7C7C7"/>
<path d="M38.9273 211.943L38.1262 212.046L92.3139 634.462L93.115 634.359L38.9273 211.943Z" fill="#C7C7C7"/>
<path d="M100.533 355.332L224.845 339.008L224.505 336.417L100.193 352.741L100.533 355.332Z" fill="#C7C7C7"/>
<path d="M102.848 367.519L227.395 351.542L227.062 348.947L102.515 364.924L102.848 367.519Z" fill="#C7C7C7"/>
<path d="M99.3043 340.035L368.476 305.506L368.143 302.91L98.9714 337.439L99.3043 340.035Z" fill="#C7C7C7"/>
<path d="M95.7932 312.578L364.965 278.048L364.632 275.452L95.4602 309.982L95.7932 312.578Z" fill="#C7C7C7"/>
<path d="M94.0367 298.834L363.208 264.304L362.875 261.709L93.7037 296.238L94.0367 298.834Z" fill="#C7C7C7"/>
<path d="M90.5096 271.378L359.681 236.849L359.348 234.253L90.1766 268.783L90.5096 271.378Z" fill="#C7C7C7"/>
<path d="M88.7369 257.635L357.908 223.105L357.575 220.51L88.4039 255.039L88.7369 257.635Z" fill="#C7C7C7"/>
<path d="M104.586 381.249L229.134 365.272L228.801 362.676L104.254 378.653L104.586 381.249Z" fill="#C7C7C7"/>
<path d="M106.343 394.977L230.89 379L230.557 376.404L106.01 392.381L106.343 394.977Z" fill="#C7C7C7"/>
<path d="M108.116 408.721L232.663 392.744L232.33 390.148L107.783 406.125L108.116 408.721Z" fill="#C7C7C7"/>
<path d="M109.872 422.464L234.42 406.487L234.087 403.892L109.539 419.869L109.872 422.464Z" fill="#C7C7C7"/>
<path d="M111.645 436.208L236.192 420.231L235.859 417.635L111.312 433.612L111.645 436.208Z" fill="#C7C7C7"/>
<path d="M113.399 449.92L237.947 433.943L237.614 431.347L113.066 447.324L113.399 449.92Z" fill="#C7C7C7"/>
<path d="M115.172 463.663L239.719 447.686L239.386 445.091L114.839 461.068L115.172 463.663Z" fill="#C7C7C7"/>
<path d="M116.929 477.407L241.476 461.43L241.143 458.835L116.596 474.811L116.929 477.407Z" fill="#C7C7C7"/>
<path d="M120.456 504.863L245.003 488.886L244.67 486.29L120.123 502.267L120.456 504.863Z" fill="#C7C7C7"/>
<path d="M122.212 518.606L246.76 502.629L246.427 500.034L121.879 516.011L122.212 518.606Z" fill="#C7C7C7"/>
<path d="M245.703 335.211L370.25 319.234L369.917 316.639L245.37 332.616L245.703 335.211Z" fill="#C7C7C7"/>
<path d="M247.459 348.955L372.007 332.978L371.674 330.382L247.126 346.359L247.459 348.955Z" fill="#C7C7C7"/>
<path d="M249.232 362.699L373.779 346.722L373.446 344.126L248.899 360.103L249.232 362.699Z" fill="#C7C7C7"/>
<path d="M250.989 376.443L375.536 360.466L375.203 357.87L250.656 373.847L250.989 376.443Z" fill="#C7C7C7"/>
<path d="M252.761 390.17L377.309 374.193L376.976 371.598L252.428 387.575L252.761 390.17Z" fill="#C7C7C7"/>
<path d="M256.256 417.644L380.804 401.667L380.471 399.071L255.923 415.048L256.256 417.644Z" fill="#C7C7C7"/>
<path d="M258.029 431.372L382.576 415.395L382.243 412.799L257.696 428.776L258.029 431.372Z" fill="#C7C7C7"/>
<path d="M259.785 445.115L384.333 429.138L384 426.543L259.452 442.52L259.785 445.115Z" fill="#C7C7C7"/>
<path d="M261.556 458.843L386.103 442.866L385.77 440.27L261.223 456.247L261.556 458.843Z" fill="#C7C7C7"/>
<path d="M263.313 472.571L387.86 456.594L387.527 453.998L262.98 469.975L263.313 472.571Z" fill="#C7C7C7"/>
<path d="M265.085 486.314L389.633 470.338L389.3 467.742L264.752 483.719L265.085 486.314Z" fill="#C7C7C7"/>
<path d="M266.842 500.058L391.389 484.081L391.056 481.486L266.509 497.463L266.842 500.058Z" fill="#C7C7C7"/>
<path opacity="0.1" d="M78.7202 179.621C78.9248 181.206 78.6546 182.816 77.9438 184.247C77.233 185.678 76.1135 186.867 74.7271 187.662C73.3407 188.456 71.7497 188.822 70.1553 188.713C68.5609 188.603 67.0349 188.023 65.7704 187.046C64.5059 186.068 63.5597 184.738 63.0515 183.223C62.5433 181.707 62.4961 180.076 62.9157 178.534C63.3354 176.992 64.203 175.609 65.4089 174.56C66.6147 173.511 68.1046 172.844 69.69 172.642C71.8125 172.372 73.9556 172.955 75.6486 174.263C77.3416 175.572 78.4464 177.498 78.7202 179.621Z" fill="black"/>
<path d="M75.554 179.96C75.6675 180.906 75.4996 181.864 75.0715 182.715C74.6433 183.566 73.9739 184.272 73.1467 184.745C72.3196 185.217 71.3714 185.436 70.4209 185.373C69.4703 185.31 68.5594 184.968 67.8021 184.39C67.0447 183.812 66.4745 183.023 66.1628 182.123C65.851 181.223 65.8114 180.251 66.0491 179.328C66.2867 178.406 66.791 177.574 67.4989 176.936C68.2068 176.298 69.0869 175.884 70.0292 175.743C70.6701 175.648 71.3236 175.682 71.9511 175.844C72.5785 176.006 73.1672 176.291 73.6823 176.684C74.1974 177.078 74.6284 177.57 74.9499 178.132C75.2714 178.695 75.4768 179.316 75.554 179.96Z" fill="#263238"/>
<path opacity="0.1" d="M120.495 174.193C120.7 175.778 120.43 177.388 119.719 178.819C119.008 180.25 117.889 181.439 116.502 182.234C115.116 183.029 113.525 183.394 111.931 183.285C110.336 183.175 108.81 182.595 107.546 181.618C106.281 180.64 105.335 179.31 104.827 177.795C104.319 176.28 104.271 174.648 104.691 173.106C105.111 171.564 105.978 170.181 107.184 169.132C108.39 168.083 109.88 167.416 111.465 167.214C113.588 166.944 115.731 167.527 117.424 168.835C119.117 170.144 120.222 172.071 120.495 174.193Z" fill="black"/>
<path d="M117.329 174.597C117.445 175.545 117.277 176.507 116.848 177.361C116.418 178.215 115.746 178.922 114.915 179.395C114.084 179.868 113.132 180.084 112.179 180.017C111.225 179.95 110.313 179.603 109.557 179.019C108.8 178.434 108.233 177.64 107.927 176.734C107.621 175.829 107.59 174.853 107.837 173.93C108.084 173.006 108.599 172.177 109.316 171.545C110.034 170.914 110.922 170.508 111.869 170.38C112.505 170.294 113.152 170.335 113.772 170.501C114.392 170.667 114.972 170.955 115.48 171.347C115.988 171.739 116.413 172.228 116.731 172.786C117.048 173.344 117.252 173.959 117.329 174.597Z" fill="#263238"/>
<path opacity="0.1" d="M162.271 168.846C162.475 170.431 162.205 172.041 161.494 173.472C160.783 174.903 159.664 176.092 158.278 176.887C156.891 177.681 155.3 178.047 153.706 177.938C152.111 177.828 150.585 177.248 149.321 176.271C148.056 175.293 147.11 173.963 146.602 172.448C146.094 170.933 146.047 169.301 146.466 167.759C146.886 166.217 147.753 164.834 148.959 163.785C150.165 162.736 151.655 162.069 153.24 161.867C155.363 161.597 157.506 162.18 159.199 163.488C160.892 164.797 161.997 166.723 162.271 168.846Z" fill="black"/>
<path d="M159.121 169.249C159.232 170.197 159.062 171.157 158.631 172.008C158.199 172.86 157.526 173.565 156.695 174.035C155.865 174.505 154.914 174.72 153.962 174.652C153.01 174.584 152.099 174.236 151.344 173.652C150.589 173.069 150.023 172.275 149.717 171.371C149.411 170.467 149.379 169.493 149.625 168.57C149.87 167.648 150.383 166.819 151.098 166.187C151.813 165.555 152.699 165.148 153.644 165.017C154.283 164.929 154.932 164.969 155.555 165.135C156.178 165.301 156.761 165.589 157.271 165.983C157.781 166.377 158.207 166.869 158.525 167.43C158.842 167.991 159.045 168.609 159.121 169.249Z" fill="#263238"/>
<path opacity="0.1" d="M204.11 163.466C204.315 165.051 204.045 166.661 203.334 168.093C202.623 169.524 201.504 170.712 200.117 171.507C198.731 172.302 197.14 172.668 195.546 172.558C193.951 172.449 192.425 171.868 191.161 170.891C189.896 169.914 188.95 168.584 188.442 167.068C187.934 165.553 187.886 163.921 188.306 162.379C188.726 160.837 189.593 159.454 190.799 158.405C192.005 157.357 193.495 156.689 195.08 156.487C197.203 156.217 199.346 156.801 201.039 158.109C202.732 159.417 203.837 161.344 204.11 163.466Z" fill="black"/>
<path d="M201.025 163.87C201.137 164.818 200.966 165.778 200.535 166.629C200.104 167.48 199.43 168.185 198.6 168.656C197.769 169.126 196.818 169.34 195.866 169.272C194.914 169.204 194.004 168.856 193.249 168.273C192.493 167.689 191.927 166.896 191.621 165.991C191.316 165.087 191.283 164.113 191.529 163.191C191.775 162.269 192.287 161.439 193.002 160.807C193.717 160.175 194.603 159.768 195.549 159.638C196.187 159.549 196.837 159.589 197.46 159.755C198.082 159.921 198.666 160.21 199.176 160.604C199.686 160.998 200.112 161.49 200.429 162.051C200.747 162.611 200.949 163.23 201.025 163.87Z" fill="#263238"/>
<path opacity="0.1" d="M246.112 158.087C246.316 159.672 246.046 161.282 245.335 162.713C244.625 164.144 243.505 165.333 242.119 166.128C240.732 166.923 239.141 167.288 237.547 167.179C235.953 167.069 234.427 166.489 233.162 165.512C231.897 164.534 230.951 163.204 230.443 161.689C229.935 160.174 229.888 158.542 230.307 157C230.727 155.458 231.595 154.075 232.8 153.026C234.006 151.977 235.496 151.31 237.082 151.108C239.204 150.838 241.347 151.421 243.04 152.73C244.733 154.038 245.838 155.965 246.112 158.087Z" fill="black"/>
<path d="M242.881 158.491C242.996 159.439 242.828 160.4 242.399 161.253C241.97 162.106 241.298 162.813 240.469 163.286C239.639 163.759 238.688 163.975 237.735 163.909C236.782 163.843 235.87 163.497 235.113 162.915C234.357 162.332 233.789 161.539 233.482 160.635C233.174 159.731 233.141 158.756 233.386 157.833C233.63 156.909 234.142 156.079 234.857 155.446C235.572 154.813 236.459 154.405 237.405 154.274C238.042 154.186 238.69 154.225 239.312 154.39C239.934 154.555 240.517 154.842 241.026 155.235C241.536 155.627 241.963 156.117 242.281 156.676C242.599 157.235 242.803 157.852 242.881 158.491Z" fill="#263238"/>
<path opacity="0.1" d="M287.79 152.74C287.995 154.325 287.724 155.935 287.014 157.366C286.303 158.797 285.183 159.986 283.797 160.781C282.411 161.576 280.82 161.941 279.225 161.832C277.631 161.722 276.105 161.142 274.84 160.165C273.576 159.187 272.63 157.857 272.121 156.342C271.613 154.827 271.566 153.195 271.986 151.653C272.405 150.111 273.273 148.728 274.479 147.679C275.685 146.63 277.174 145.963 278.76 145.761C280.882 145.491 283.025 146.074 284.718 147.382C286.412 148.691 287.516 150.618 287.79 152.74Z" fill="black"/>
<path d="M284.64 153.143C284.752 154.091 284.581 155.051 284.15 155.902C283.719 156.754 283.045 157.459 282.215 157.929C281.384 158.399 280.433 158.614 279.481 158.546C278.529 158.478 277.619 158.13 276.864 157.546C276.108 156.963 275.542 156.169 275.236 155.265C274.931 154.361 274.898 153.387 275.144 152.464C275.39 151.542 275.902 150.713 276.617 150.081C277.332 149.449 278.218 149.042 279.164 148.911C279.802 148.823 280.452 148.863 281.075 149.029C281.697 149.195 282.281 149.483 282.791 149.877C283.301 150.271 283.727 150.763 284.044 151.324C284.362 151.885 284.564 152.503 284.64 153.143Z" fill="#263238"/>
<path opacity="0.1" d="M329.614 147.312C329.818 148.897 329.548 150.507 328.837 151.938C328.126 153.37 327.007 154.558 325.621 155.353C324.234 156.148 322.643 156.513 321.049 156.404C319.454 156.294 317.928 155.714 316.664 154.737C315.399 153.76 314.453 152.429 313.945 150.914C313.437 149.399 313.39 147.767 313.809 146.225C314.229 144.683 315.097 143.3 316.302 142.251C317.508 141.202 318.998 140.535 320.583 140.333C322.706 140.063 324.849 140.646 326.542 141.955C328.235 143.263 329.34 145.19 329.614 147.312Z" fill="black"/>
<path d="M326.448 147.78C326.56 148.729 326.39 149.689 325.958 150.541C325.526 151.393 324.852 152.099 324.021 152.569C323.189 153.039 322.237 153.253 321.285 153.184C320.332 153.115 319.421 152.766 318.666 152.181C317.911 151.596 317.346 150.801 317.041 149.895C316.737 148.99 316.707 148.015 316.955 147.092C317.203 146.17 317.718 145.341 318.435 144.711C319.153 144.08 320.041 143.675 320.987 143.548C321.625 143.462 322.272 143.504 322.893 143.671C323.514 143.838 324.096 144.126 324.604 144.52C325.112 144.914 325.537 145.405 325.853 145.965C326.17 146.525 326.372 147.142 326.448 147.78Z" fill="#263238"/>
<path opacity="0.1" d="M371.567 141.997C371.771 143.582 371.501 145.192 370.79 146.623C370.079 148.055 368.96 149.243 367.574 150.038C366.187 150.833 364.596 151.199 363.002 151.089C361.407 150.979 359.881 150.399 358.617 149.422C357.352 148.445 356.406 147.114 355.898 145.599C355.39 144.084 355.343 142.452 355.762 140.91C356.182 139.368 357.049 137.985 358.255 136.936C359.461 135.888 360.951 135.22 362.536 135.018C364.659 134.748 366.802 135.331 368.495 136.64C370.188 137.948 371.293 139.875 371.567 141.997Z" fill="black"/>
<path d="M368.4 142.465C368.513 143.414 368.342 144.375 367.911 145.227C367.479 146.079 366.805 146.784 365.973 147.254C365.142 147.725 364.19 147.939 363.237 147.869C362.285 147.8 361.374 147.451 360.619 146.866C359.864 146.281 359.299 145.486 358.994 144.58C358.69 143.675 358.66 142.7 358.908 141.777C359.156 140.855 359.671 140.026 360.388 139.396C361.106 138.765 361.994 138.361 362.94 138.233C363.577 138.147 364.225 138.189 364.846 138.356C365.467 138.523 366.049 138.812 366.557 139.206C367.065 139.599 367.49 140.091 367.806 140.65C368.123 141.21 368.325 141.827 368.4 142.465Z" fill="#263238"/>
<path d="M72.4685 163.159C72.9854 167.149 74.2132 180.218 74.2132 180.218C74.7947 184.741 67.7514 185.63 67.2183 181.123C66.6852 176.616 65.6029 168.603 64.6659 161.269C63.3736 151.253 58.5596 148.2 54.2141 148.766C48.8023 149.46 46.4277 156.391 47.3 163.305L40.2728 164.209C38.2697 148.62 44.9415 141.593 52.6148 140.672C64.2782 139.121 70.3038 146.262 72.4685 163.159Z" fill="#A6A6A6"/>
<path d="M114.292 157.796C114.809 161.786 116.037 174.855 116.037 174.855C116.618 179.378 109.575 180.267 109.042 175.76C108.509 171.253 107.427 163.24 106.49 155.89C105.197 145.89 100.383 142.837 96.0377 143.402C90.626 144.097 88.2513 151.027 89.1237 157.941L82.0965 158.846C80.0934 143.257 86.7813 136.23 94.4385 135.293C106.102 133.758 112.127 140.85 114.292 157.796Z" fill="#A6A6A6"/>
<path d="M156.116 152.417C156.633 156.423 157.861 169.492 157.861 169.492C158.442 174.015 151.399 174.887 150.866 170.396C150.333 165.905 149.25 157.877 148.313 150.526C147.037 140.527 142.207 137.474 137.861 138.039C132.45 138.734 130.075 145.664 130.947 152.578L123.92 153.483C121.917 137.894 128.605 130.867 136.262 129.93C147.942 128.395 154.032 135.519 156.116 152.417Z" fill="#A6A6A6"/>
<path d="M197.939 147.053C198.456 151.06 199.684 164.128 199.684 164.128C200.266 168.652 193.222 169.524 192.689 165.017C192.156 160.51 191.074 152.513 190.137 145.163C188.861 135.164 184.031 132.11 179.685 132.66C174.273 133.354 171.899 140.285 172.787 147.199L165.744 148.103C163.741 132.498 170.429 125.487 178.086 124.55C189.765 123.08 195.775 130.156 197.939 147.053Z" fill="#A6A6A6"/>
<path d="M239.779 141.69C240.28 145.696 241.508 158.765 241.508 158.765C242.089 163.288 235.046 164.161 234.513 159.654C233.98 155.147 232.898 147.15 231.961 139.8C230.684 129.8 225.854 126.747 221.509 127.296C216.097 127.991 213.722 134.921 214.611 141.835L207.567 142.724C205.564 127.135 212.252 120.108 219.909 119.187C231.573 117.652 237.598 124.793 239.779 141.69Z" fill="#A6A6A6"/>
<path d="M281.651 136.327C282.152 140.333 283.38 153.402 283.38 153.402C283.962 157.909 276.918 158.798 276.385 154.29C275.852 149.783 274.77 141.771 273.833 134.437C272.557 124.437 267.726 121.384 263.397 121.933C257.969 122.628 255.594 129.558 256.483 136.472L249.44 137.377C247.437 121.788 254.124 114.761 261.782 113.84C273.413 112.289 279.422 119.429 281.651 136.327Z" fill="#A6A6A6"/>
<path d="M323.427 130.964C323.927 134.954 325.155 148.023 325.155 148.023C325.737 152.546 318.693 153.434 318.16 148.927C317.627 144.42 316.545 136.408 315.608 129.073C314.332 119.058 309.502 116.021 305.172 116.57C299.76 117.265 297.37 124.195 298.258 131.109L291.215 132.014C289.212 116.425 295.9 109.397 303.557 108.477C315.236 106.926 321.262 114.066 323.427 130.964Z" fill="#A6A6A6"/>
<path d="M365.25 125.6C365.767 129.59 366.979 142.659 366.979 142.659C367.56 147.183 360.517 148.071 359.984 143.564C359.451 139.057 358.369 131.044 357.432 123.71C356.155 113.695 351.325 110.641 346.996 111.207C341.584 111.901 339.193 118.832 340.082 125.746L333.039 126.65C331.035 111.061 337.723 104.034 345.38 103.113C357.06 101.563 363.086 108.703 365.25 125.6Z" fill="#A6A6A6"/>
<path d="M337.788 613.575H50.5793V643.978H337.788V613.575Z" fill="#F56A30"/>
<path opacity="0.6" d="M337.788 613.575H50.5793V643.978H337.788V613.575Z" fill="white"/>
<path d="M283.622 643.978H311.682V613.575H283.622V643.978Z" fill="#F56A30"/>
<path d="M261.491 643.978H273.203V613.575H261.491V643.978Z" fill="#F56A30"/>
<path d="M76.1517 643.978H104.212V613.575H76.1517V643.978Z" fill="#F56A30"/>
<path d="M351.002 688.225H55.6033V709.791H351.002V688.225Z" fill="#455A64"/>
<path d="M133.516 688.225H121.465V709.791H133.516V688.225Z" fill="#F56A30"/>
<path d="M113.517 688.225H101.466V709.791H113.517V688.225Z" fill="#F56A30"/>
<path d="M321.553 688.225H309.502V709.791H321.553V688.225Z" fill="#F56A30"/>
<path d="M301.554 688.225H289.502V709.791H301.554V688.225Z" fill="#F56A30"/>
<path d="M241.96 581.396H63.1636V613.592H241.96V581.396Z" fill="#455A64"/>
<path d="M348.159 581.396H241.75V613.592H348.159V581.396Z" fill="#37474F"/>
<path d="M238.002 584.74H63.1636V610.248H238.002V584.74Z" fill="white"/>
<path d="M74.4716 604.997C88.1059 605.181 101.735 605.31 115.358 605.385L156.245 605.498L197.116 605.385C210.75 605.321 224.379 605.191 238.002 604.997C224.368 604.814 210.739 604.69 197.116 604.626L156.245 604.513L115.358 604.626C101.724 604.69 88.0952 604.814 74.4716 604.997Z" fill="#DBDBDB"/>
<path d="M74.4716 600.006C88.1059 600.178 101.735 600.302 115.358 600.377L156.245 600.49L197.116 600.377C210.75 600.313 224.379 600.189 238.002 600.006C224.368 599.812 210.739 599.683 197.116 599.618L156.245 599.505L115.358 599.618C101.724 599.629 88.0952 599.758 74.4716 600.006Z" fill="#DBDBDB"/>
<path d="M74.4716 594.998C88.1059 595.181 101.735 595.305 115.358 595.369L156.245 595.483L197.116 595.369C210.75 595.305 224.379 595.181 238.002 594.998C224.368 594.804 210.739 594.675 197.116 594.61L156.245 594.497L115.358 594.61C101.724 594.729 88.0952 594.858 74.4716 594.998Z" fill="#DBDBDB"/>
<path d="M74.4716 589.942C88.1059 590.125 101.735 590.249 115.358 590.313L156.245 590.426L197.116 590.313C210.75 590.249 224.379 590.125 238.002 589.942C224.368 589.769 210.739 589.64 197.116 589.554L156.245 589.441L115.358 589.57C101.724 589.667 88.0952 589.791 74.4716 589.942Z" fill="#DBDBDB"/>
<path d="M223.883 638.437L211.703 625.578L199.523 638.437V605.111L202.123 600.006H226.484L223.883 605.111V638.437Z" fill="#F56A30"/>
<path d="M219.247 688.225H391.388V643.978H219.247V688.225Z" fill="#37474F"/>
<path d="M28.5771 688.225H219.231V643.978H28.5771V688.225Z" fill="#263238"/>
<path d="M224.481 683.637H391.388V648.582H224.481V683.637Z" fill="white"/>
<path d="M380.581 655.787C367.571 655.604 354.562 655.48 341.552 655.415L302.539 655.302L263.51 655.415C250.5 655.48 237.491 655.604 224.481 655.787C237.48 655.97 250.49 656.094 263.51 656.158L302.539 656.271L341.552 656.158C354.572 656.094 367.582 655.97 380.581 655.787Z" fill="#DBDBDB"/>
<path d="M380.581 662.636C367.571 662.464 354.562 662.335 341.552 662.249L302.539 662.135L263.51 662.249C250.5 662.313 237.491 662.442 224.481 662.636C237.48 662.819 250.49 662.943 263.51 663.008L302.539 663.121L341.552 663.008C354.572 662.965 367.582 662.841 380.581 662.636Z" fill="#DBDBDB"/>
<path d="M380.581 669.55C367.571 669.356 354.562 669.227 341.552 669.163L302.539 669.098L263.51 669.211C250.5 669.276 237.491 669.405 224.481 669.599C237.48 669.782 250.49 669.906 263.51 669.97L302.539 670.083L341.552 669.97C354.572 669.873 367.582 669.733 380.581 669.55Z" fill="#DBDBDB"/>
<path d="M380.581 676.416C367.571 676.244 354.562 676.12 341.552 676.044L302.539 675.931L263.51 676.044C250.5 676.109 237.491 676.233 224.481 676.416C237.48 676.61 250.49 676.739 263.51 676.804L302.539 676.917L341.552 676.804C354.572 676.739 367.582 676.61 380.581 676.416Z" fill="#DBDBDB"/>
<path d="M131.545 581.396H294.607V547.795H131.545V581.396Z" fill="#F56A30"/>
<path d="M38.5928 581.396H131.545V547.795H38.5928V581.396Z" fill="#F56A30"/>
<path opacity="0.2" d="M38.5928 581.396H127.393V547.795H38.5928V581.396Z" fill="black"/>
<path d="M131.545 577.907H294.607V551.268H131.545V577.907Z" fill="white"/>
<path d="M284.042 556.76C271.345 556.567 258.637 556.437 245.918 556.373L207.794 556.244L169.669 556.373C156.972 556.437 144.264 556.567 131.545 556.76C144.253 556.954 156.961 557.084 169.669 557.148L207.794 557.277L245.918 557.148C258.637 557.084 271.345 556.954 284.042 556.76Z" fill="#DBDBDB"/>
<path d="M284.042 561.978C271.345 561.795 258.637 561.666 245.918 561.591L207.794 561.478L169.669 561.591C156.972 561.655 144.264 561.784 131.545 561.978C144.253 562.172 156.961 562.307 169.669 562.382L207.794 562.495L245.918 562.382C258.637 562.307 271.345 562.172 284.042 561.978Z" fill="#DBDBDB"/>
<path d="M284.042 567.212C271.345 567.019 258.637 566.884 245.918 566.808L207.794 566.695L169.669 566.808C156.972 566.884 144.264 567.019 131.545 567.212C144.253 567.406 156.961 567.535 169.669 567.6L207.794 567.729L245.918 567.6C258.637 567.535 271.345 567.406 284.042 567.212Z" fill="#DBDBDB"/>
<path d="M284.042 572.43C271.345 572.247 258.637 572.118 245.918 572.043L207.794 571.929L169.669 572.043C156.972 572.107 144.264 572.236 131.545 572.43C144.253 572.624 156.961 572.759 169.669 572.834L207.794 572.947L245.918 572.834C258.637 572.759 271.345 572.624 284.042 572.43Z" fill="#DBDBDB"/>
<path d="M160.445 592.494L168.329 584.174L176.212 592.494V570.944L174.532 567.632H158.765L160.445 570.944V592.494Z" fill="#455A64"/>
<path d="M515.89 104.729V505.357H297.354V506.1C297.358 520.869 291.583 535.053 281.264 545.619C270.946 556.185 256.903 562.295 242.138 562.641H240.183C238.262 562.653 236.341 562.55 234.432 562.334L223.9 560.169C221.287 559.332 218.739 558.306 216.275 557.1C215.044 556.551 213.846 555.931 212.688 555.242C212.059 554.918 211.459 554.539 210.895 554.111C209.251 553.151 207.68 552.071 206.194 550.88C205.932 550.7 205.684 550.5 205.451 550.283C204.305 549.47 203.225 548.568 202.22 547.585C201.703 547.132 201.187 546.615 200.605 546.098C194.092 539.685 189.288 531.743 186.631 522.998C186.578 522.817 186.502 522.643 186.405 522.481C186.034 521.14 185.662 519.718 185.371 518.297C184.914 516.506 184.612 514.679 184.467 512.837C184.321 512.013 184.321 511.221 184.241 510.381C184.209 510.107 184.209 509.831 184.241 509.557C184.241 508.507 184.014 507.538 184.014 506.488V105.31C184.014 89.4629 172.949 48.657 124.001 48.657H459.77C467.137 48.6506 474.434 50.0963 481.242 52.9113C488.051 55.7263 494.238 59.8555 499.45 65.0629C504.662 70.2703 508.796 76.4538 511.617 83.2599C514.438 90.066 515.89 97.3613 515.89 104.729Z" fill="white"/>
<path d="M515.89 104.729C516.003 104.971 516.181 505.47 516.261 505.729C516.342 505.987 297.515 505.826 297.434 505.939L298.016 505.357C298.021 511.425 297.139 517.46 295.399 523.272C292.634 531.978 287.839 539.902 281.41 546.39C274.981 552.878 267.101 557.745 258.421 560.589C250.656 563.018 242.479 563.848 234.384 563.028L223.77 560.864C220.783 559.942 217.885 558.753 215.112 557.31C206.068 552.874 198.373 546.102 192.823 537.696C187.274 529.289 184.071 519.552 183.546 509.493C183.174 505.68 183.352 498.847 183.32 494.954C183.32 485.261 183.32 458.413 183.32 448.332C183.401 346.221 183.546 208.682 183.627 106.457C183.627 86.0221 172.448 65.1991 153.983 55.7488C144.688 51.2195 134.453 48.9501 124.114 49.1255V48.2855C205.581 48.4793 382.18 48.2855 461.74 48.6893C491.513 49.4163 516.035 74.9402 515.841 104.729H515.89ZM515.89 104.729C516.019 75.0533 491.561 49.4809 461.773 48.8509C383.004 48.6409 204.918 49.1093 124.146 49.077V48.2855C134.621 48.082 144.996 50.3628 154.42 54.9411C173.191 64.5045 184.515 85.6344 184.644 106.409C184.758 208.682 184.871 346.124 184.951 448.284C184.951 458.38 184.951 485.116 184.951 494.905C185.048 498.718 184.725 505.648 185.161 509.444C185.309 512.157 185.649 514.857 186.179 517.522C187.882 525.751 191.424 533.489 196.541 540.155C201.658 546.822 208.216 552.244 215.725 556.017C218.392 557.415 221.176 558.577 224.045 559.491L234.578 561.671C242.464 562.541 250.445 561.726 257.992 559.281C265.54 556.837 272.483 552.818 278.362 547.49C284.241 542.162 288.922 535.647 292.096 528.376C295.269 521.104 296.863 513.242 296.772 505.309V504.727H297.354L515.809 504.937C515.26 507.36 515.809 104.115 515.809 104.68L515.89 104.729Z" fill="#263238"/>
<path d="M361.632 82.5327L478.896 82.5327V79.318L361.632 79.318V82.5327Z" fill="#DBDBDB"/>
<path d="M225.45 167.505L342.715 167.505V164.29H225.45V167.505Z" fill="#DBDBDB"/>
<path d="M225.45 184.515L342.715 184.515V181.301H225.45V184.515Z" fill="#DBDBDB"/>
<path d="M225.45 201.51L342.715 201.51V198.295H225.45V201.51Z" fill="#DBDBDB"/>
<path d="M225.45 218.504L342.715 218.504V215.289H225.45V218.504Z" fill="#DBDBDB"/>
<path d="M225.45 235.498L342.715 235.498V232.284H225.45V235.498Z" fill="#DBDBDB"/>
<path d="M225.45 252.493L342.715 252.493V249.278H225.45V252.493Z" fill="#DBDBDB"/>
<path d="M225.45 269.471H342.715V266.256H225.45V269.471Z" fill="#DBDBDB"/>
<path d="M225.45 286.466H342.715V283.251H225.45V286.466Z" fill="#DBDBDB"/>
<path d="M225.45 303.46H342.715V300.245H225.45V303.46Z" fill="#DBDBDB"/>
<path d="M225.45 320.47H342.715V317.256H225.45V320.47Z" fill="#DBDBDB"/>
<path d="M225.45 354.459H342.715V351.245H225.45V354.459Z" fill="#DBDBDB"/>
<path d="M225.45 371.454H342.715V368.239H225.45V371.454Z" fill="#DBDBDB"/>
<path d="M225.45 388.448H342.715V385.233H225.45V388.448Z" fill="#DBDBDB"/>
<path d="M225.45 405.442H342.715V402.228H225.45V405.442Z" fill="#DBDBDB"/>
<path d="M225.45 439.431H342.715V436.217H225.45V439.431Z" fill="#DBDBDB"/>
<path d="M225.45 456.426H342.715V453.211H225.45V456.426Z" fill="#DBDBDB"/>
<path d="M225.45 473.436H342.715V470.222H225.45V473.436Z" fill="#DBDBDB"/>
<path d="M361.632 99.5271L478.896 99.5271V96.3124L361.632 96.3124V99.5271Z" fill="#DBDBDB"/>
<path d="M361.632 116.522L478.896 116.522V113.307L361.632 113.307V116.522Z" fill="#DBDBDB"/>
<path d="M361.632 133.516L478.896 133.516V130.301H361.632V133.516Z" fill="#DBDBDB"/>
<path d="M361.632 150.51L478.896 150.51V147.296H361.632V150.51Z" fill="#DBDBDB"/>
<path d="M361.632 167.505L478.896 167.505V164.29H361.632V167.505Z" fill="#DBDBDB"/>
<path d="M361.632 184.515L478.896 184.515V181.301H361.632V184.515Z" fill="#DBDBDB"/>
<path d="M361.632 201.51L478.896 201.51V198.295H361.632V201.51Z" fill="#DBDBDB"/>
<path d="M361.632 218.504L478.896 218.504V215.289H361.632V218.504Z" fill="#DBDBDB"/>
<path d="M361.632 235.498L478.896 235.498V232.284H361.632V235.498Z" fill="#DBDBDB"/>
<path d="M361.632 269.471H478.896V266.256H361.632V269.471Z" fill="#DBDBDB"/>
<path d="M361.632 286.466H478.896V283.251H361.632V286.466Z" fill="#DBDBDB"/>
<path d="M361.632 303.46H478.896V300.245H361.632V303.46Z" fill="#DBDBDB"/>
<path d="M361.632 320.47H478.896V317.256H361.632V320.47Z" fill="#DBDBDB"/>
<path d="M361.632 337.465H478.896V334.25H361.632V337.465Z" fill="#DBDBDB"/>
<path d="M361.632 354.459H478.896V351.245H361.632V354.459Z" fill="#DBDBDB"/>
<path d="M361.632 371.454H478.896V368.239H361.632V371.454Z" fill="#DBDBDB"/>
<path d="M361.632 388.448H478.896V385.233H361.632V388.448Z" fill="#DBDBDB"/>
<path d="M225.45 82.3873L284.091 82.2419C303.638 82.2419 323.168 82.2419 342.715 82.3873C323.168 82.5166 303.638 82.4843 284.091 82.5327L225.45 82.3873Z" fill="#DBDBDB"/>
<path d="M225.45 86.7652L284.091 86.6198C303.638 86.6198 323.168 86.6198 342.715 86.7652C323.168 86.8944 303.638 86.8621 284.091 86.9106L225.45 86.7652Z" fill="#DBDBDB"/>
<path d="M225.45 91.143L284.091 91.0138C303.638 91.0138 323.168 91.0138 342.715 91.143C323.168 91.2722 303.638 91.2399 284.091 91.2884L225.45 91.143Z" fill="#DBDBDB"/>
<path d="M225.45 95.5208L284.091 95.3916C303.638 95.3916 323.168 95.3916 342.715 95.5208C323.168 95.6501 303.638 95.6178 284.091 95.6662L225.45 95.5208Z" fill="#DBDBDB"/>
<path d="M225.45 99.9148L284.091 99.7694C303.638 99.7694 323.168 99.7694 342.715 99.9148C323.168 100.028 303.638 99.9148 284.091 100.044L225.45 99.9148Z" fill="#DBDBDB"/>
<path d="M225.45 104.293L284.091 104.147C303.638 104.147 323.168 104.147 342.715 104.293C323.168 104.406 303.638 104.293 284.091 104.438L225.45 104.293Z" fill="#DBDBDB"/>
<path d="M225.45 108.67L284.091 108.525C303.638 108.525 323.168 108.525 342.715 108.67C323.168 108.784 303.638 108.767 284.091 108.816L225.45 108.67Z" fill="#DBDBDB"/>
<path d="M225.45 113.048L284.091 112.903C303.638 112.903 323.168 112.903 342.715 113.048C323.168 113.178 303.638 113.145 284.091 113.194L225.45 113.048Z" fill="#DBDBDB"/>
<path d="M225.45 117.426L284.091 117.281C303.638 117.281 323.168 117.281 342.715 117.426C323.168 117.555 303.638 117.523 284.091 117.572L225.45 117.426Z" fill="#DBDBDB"/>
<path d="M225.45 121.804L284.091 121.659C303.638 121.659 323.168 121.659 342.715 121.804C323.168 121.933 303.638 121.901 284.091 121.949L225.45 121.804Z" fill="#DBDBDB"/>
<path d="M225.45 126.182L284.091 126.036C303.638 126.036 323.168 126.036 342.715 126.182C323.168 126.311 303.638 126.279 284.091 126.327L225.45 126.182Z" fill="#DBDBDB"/>
<path d="M225.45 130.56L284.091 130.43C303.638 130.43 323.168 130.43 342.715 130.56C323.168 130.689 303.638 130.657 284.091 130.705L225.45 130.56Z" fill="#DBDBDB"/>
<path d="M225.45 134.954L284.091 134.808C303.638 134.808 323.168 134.808 342.715 134.954C323.168 135.067 303.638 135.034 284.091 135.083L225.45 134.954Z" fill="#DBDBDB"/>
<path d="M225.45 139.331L284.091 139.186C303.638 139.186 323.168 139.186 342.715 139.331C323.168 139.445 303.638 139.331 284.091 139.461L225.45 139.331Z" fill="#DBDBDB"/>
<path d="M225.45 143.709L284.091 143.564C303.638 143.564 323.168 143.564 342.715 143.709C323.168 143.822 303.638 143.709 284.091 143.855L225.45 143.709Z" fill="#DBDBDB"/>
<path d="M246.742 113.048H237.857V148.814H246.742V113.048Z" fill="#F56A30"/>
<path d="M263.235 97.9117H254.351V148.798H263.235V97.9117Z" fill="#263238"/>
<path d="M279.729 108.816H270.844V148.814H279.729V108.816Z" fill="#DBDBDB"/>
<path d="M296.223 95.5208H287.338V148.798H296.223V95.5208Z" fill="#F56A30"/>
<path d="M312.732 102.677H303.848V148.814H312.732V102.677Z" fill="#263238"/>
<path d="M329.226 128.815H320.341V148.814H329.226V128.815Z" fill="#DBDBDB"/>
<path d="M228.633 79.318L228.875 96.684L229.053 114.066C229.166 125.649 229.198 137.231 229.214 148.814L228.633 148.281H257.161H285.674L314.203 148.443L342.715 148.766L314.203 149.073L285.674 149.25H257.161H228.084V148.717C228.084 137.134 228.084 125.552 228.261 113.969L228.423 96.587L228.633 79.318Z" fill="#DBDBDB"/>
<path d="M246.742 152.481H237.857V153.224H246.742V152.481Z" fill="#DBDBDB"/>
<path d="M263.235 152.481H254.351V153.224H263.235V152.481Z" fill="#DBDBDB"/>
<path d="M279.729 152.481H270.844V153.224H279.729V152.481Z" fill="#DBDBDB"/>
<path d="M296.223 152.481H287.338V153.224H296.223V152.481Z" fill="#DBDBDB"/>
<path d="M312.732 152.481H303.848V153.224H312.732V152.481Z" fill="#DBDBDB"/>
<path d="M329.226 152.481H320.341V153.224H329.226V152.481Z" fill="#DBDBDB"/>
<path d="M421.839 428.802C421.838 434.361 420.202 439.797 417.134 444.433C414.066 449.069 409.703 452.701 404.586 454.875L393.521 428.802H421.839Z" fill="#F56A30"/>
<path d="M389.886 426.863L400.952 452.92C400.079 453.276 399.207 453.599 398.351 453.873C392.871 455.553 387.014 455.553 381.534 453.873C377.157 452.5 373.178 450.087 369.937 446.84C366.696 443.594 364.29 439.61 362.924 435.231C361.223 429.76 361.223 423.901 362.924 418.431C364.286 414.053 366.691 410.071 369.933 406.829C373.175 403.588 377.156 401.182 381.534 399.821C387.01 398.119 392.874 398.119 398.351 399.821C402.73 401.182 406.714 403.588 409.958 406.829C413.202 410.071 415.611 414.052 416.977 418.431C417.815 421.152 418.245 423.983 418.253 426.831L389.886 426.863Z" fill="#F56A30"/>
<path d="M389.886 426.863L400.952 452.92C400.079 453.276 399.207 453.599 398.351 453.873C392.655 455.646 386.545 455.575 380.892 453.671C375.239 451.766 370.332 448.125 366.871 443.267C363.409 438.408 361.57 432.581 361.616 426.616C361.662 420.651 363.591 414.853 367.127 410.049C370.662 405.244 375.625 401.679 381.307 399.862C386.988 398.045 393.098 398.068 398.766 399.928C404.434 401.789 409.369 405.391 412.868 410.222C416.368 415.053 418.252 420.866 418.253 426.831L389.886 426.863Z" fill="#DBDBDB"/>
<path d="M389.886 426.863L371.47 448.316C367.876 445.224 365.117 441.278 363.446 436.842C361.776 432.405 361.247 427.619 361.909 422.925C362.571 418.23 364.402 413.777 367.234 409.975C370.066 406.174 373.809 403.144 378.117 401.167C382.426 399.189 387.163 398.326 391.892 398.656C396.622 398.987 401.192 400.502 405.183 403.06C409.174 405.619 412.459 409.139 414.734 413.299C417.009 417.458 418.203 422.122 418.204 426.863H389.886Z" fill="#455A64"/>
<path d="M436.475 464.357H415.103L388.626 437.897L389.013 437.509L415.329 463.824H436.475V464.357Z" fill="#263238"/>
<path d="M390.306 436.2H387.333V439.173H390.306V436.2Z" fill="#263238"/>
<path d="M436.475 443.874H412.389L400.951 432.453L401.339 432.065L412.615 443.341H436.475V443.874Z" fill="#263238"/>
<path d="M402.632 430.773H399.659V433.745H402.632V430.773Z" fill="#263238"/>
<path d="M436.475 423.616H400.047V424.165H436.475V423.616Z" fill="#263238"/>
<path d="M401.129 422.405H398.157V425.377H401.129V422.405Z" fill="#263238"/>
<path d="M471.223 420.902H444.762V423.358H471.223V420.902Z" fill="#EBEBEB"/>
<path d="M479.106 426.039H444.762V428.495H479.106V426.039Z" fill="#EBEBEB"/>
<path d="M463.113 431.176H444.762V433.632H463.113V431.176Z" fill="#EBEBEB"/>
<path d="M439.464 420.902H433.486V426.879H439.464V420.902Z" fill="#455A64"/>
<path d="M474.438 440.788H444.762V443.244H474.438V440.788Z" fill="#EBEBEB"/>
<path d="M469.511 445.925H444.762V448.381H469.511V445.925Z" fill="#EBEBEB"/>
<path d="M479.106 451.079H444.762V453.534H479.106V451.079Z" fill="#EBEBEB"/>
<path d="M439.464 440.788H433.486V446.765H439.464V440.788Z" fill="#F56A30"/>
<path d="M474.438 460.674H444.762V463.13H474.438V460.674Z" fill="#EBEBEB"/>
<path d="M469.511 465.828H444.762V468.283H469.511V465.828Z" fill="#EBEBEB"/>
<path d="M479.106 470.965H444.762V473.42H479.106V470.965Z" fill="#EBEBEB"/>
<path d="M439.464 460.674H433.486V466.651H439.464V460.674Z" fill="#DBDBDB"/>
<path d="M128.185 48.6732C143.191 48.6946 157.574 54.6716 168.176 65.2913C178.777 75.911 184.73 90.3047 184.725 105.31V129.703H71.5477V105.31C71.5456 97.8721 73.0091 90.5063 75.8546 83.6338C78.7002 76.7612 82.872 70.5168 88.1316 65.2571C93.3913 59.9974 99.6358 55.8256 106.508 52.9801C113.381 50.1346 120.747 48.671 128.185 48.6732Z" fill="#DBDBDB"/>
<path d="M598.374 505.357V506.1C598.378 520.869 592.603 535.053 582.285 545.619C571.966 556.185 557.923 562.295 543.158 562.641H242.138C256.903 562.295 270.946 556.185 281.264 545.619C291.583 535.053 297.358 520.869 297.354 506.1V505.357H598.374Z" fill="#DBDBDB"/>
<path d="M19.2237 709.807C221.509 708.806 448.413 708.806 650.698 709.807C448.413 710.793 221.509 710.793 19.2237 709.807Z" fill="#263238"/>
<path d="M416.234 709.645C420.191 710.922 532.82 709.452 537.068 706.673C538.684 705.655 539.443 689.226 539.766 669.356V668.726C539.847 664.639 539.911 660.423 539.911 656.142C539.911 655.561 539.911 654.963 539.911 654.381L534.451 595.951L459.107 596.71L466.538 654.591L466.635 656.885L467.088 668.856V670.099C467.088 670.099 424.278 689.937 419.933 693.491C415.587 697.045 412.276 708.385 416.234 709.645Z" fill="#FEC68E"/>
<path d="M416.234 709.645C420.191 710.922 532.82 709.452 537.068 706.673C538.684 705.655 539.443 689.226 539.766 669.356V668.726C539.847 664.639 539.911 660.423 539.911 656.142C539.911 655.561 539.911 654.963 539.911 654.381L466.538 654.591L466.635 656.885L467.088 668.856V670.1C467.088 670.1 424.278 689.937 419.933 693.491C415.587 697.045 412.276 708.385 416.234 709.645Z" fill="#EBEBEB"/>
<path d="M416.217 709.629C418.253 710.292 448.849 710.227 478.767 709.629C484.777 709.516 490.754 709.371 496.537 709.225C517.877 708.644 535.501 707.755 537.133 706.689C538.764 705.623 539.491 689.695 539.814 670.196C539.814 669.922 539.814 669.647 539.814 669.373C539.814 669.098 539.814 668.936 539.814 668.726H539.718L467.136 668.872V670.116C467.136 670.116 424.278 689.937 419.933 693.491C415.587 697.045 412.276 708.385 416.217 709.629Z" fill="#A6A6A6"/>
<path d="M417.445 705.268C436.426 704.541 513.047 703.458 531.866 704.201C532.012 704.201 532.028 704.314 531.866 704.331C513.063 705.445 436.443 705.946 417.461 705.575C417.057 705.558 417.057 705.268 417.445 705.268Z" fill="#263238"/>
<path d="M459.01 669.179C466.474 667.676 475.617 668.71 481.4 674.025C481.626 674.235 481.4 674.542 481.093 674.477C473.922 672.265 466.536 670.825 459.059 670.18C458.926 670.187 458.796 670.14 458.698 670.051C458.599 669.961 458.54 669.836 458.534 669.704C458.527 669.571 458.574 669.441 458.663 669.342C458.753 669.244 458.877 669.185 459.01 669.179Z" fill="#263238"/>
<path d="M453.663 672.49C461.11 671.004 470.27 672.038 476.053 677.337C476.279 677.531 476.053 677.854 475.73 677.773C468.566 675.557 461.184 674.122 453.712 673.492C453.579 673.498 453.449 673.452 453.35 673.362C453.252 673.273 453.193 673.148 453.187 673.015C453.18 672.883 453.227 672.753 453.316 672.654C453.406 672.556 453.53 672.497 453.663 672.49Z" fill="#263238"/>
<path d="M448.316 675.818C455.763 674.316 464.923 675.35 470.69 680.664C470.916 680.874 470.69 681.181 470.383 681.117C463.213 678.902 455.826 677.461 448.348 676.82C448.216 676.824 448.087 676.775 447.99 676.684C447.893 676.594 447.836 676.468 447.831 676.335C447.827 676.202 447.876 676.073 447.967 675.976C448.058 675.879 448.183 675.822 448.316 675.818Z" fill="#263238"/>
<path opacity="0.2" d="M478.735 709.613C484.744 709.5 490.721 709.355 496.505 709.209C517.845 708.628 535.469 707.739 537.101 706.673C538.732 705.607 539.459 689.679 539.782 670.18C539.782 669.906 539.782 669.631 539.782 669.356C539.782 669.082 539.782 668.92 539.782 668.71H539.685C529.75 675.689 494.711 699.016 478.735 709.613Z" fill="black"/>
<path d="M462.16 669.098H543.352C543.352 669.098 527.02 479.639 527.65 476.344C528.474 472.095 533.256 452.92 539.637 427.881C541.624 420.046 543.788 411.646 546.099 402.922C552.156 379.353 558.828 353.587 564.628 331.181C573.351 297.596 580.152 271.507 580.152 271.507H511.237C511.237 271.507 503.16 296.917 493.128 329.953C476.683 383.666 454.697 457.573 452.532 475.536C449.011 504.55 462.16 669.098 462.16 669.098Z" fill="#263238"/>
<path d="M465.811 655.27C478.202 655.011 474.648 654.914 487.038 654.801C493.096 654.801 532.949 654.397 538.603 655.334C538.628 655.344 538.649 655.36 538.664 655.382C538.679 655.403 538.687 655.429 538.687 655.456C538.687 655.482 538.679 655.508 538.664 655.529C538.649 655.551 538.628 655.568 538.603 655.577C532.933 656.514 493.096 656.174 487.038 656.11C474.648 655.997 478.202 655.9 465.811 655.641C465.771 655.629 465.736 655.605 465.711 655.571C465.686 655.538 465.673 655.497 465.673 655.456C465.673 655.414 465.686 655.373 465.711 655.34C465.736 655.306 465.771 655.282 465.811 655.27Z" fill="#37474F"/>
<path d="M512.32 464.777C514.969 453.049 518.943 441.564 522.4 430.046C529.443 406.654 536.519 383.279 543.627 359.919C547.181 348.234 550.746 336.56 554.321 324.897C556.147 319 557.956 313.104 559.797 307.224C561.639 301.344 563.658 295.754 565.29 289.955C565.952 287.596 566.308 288.889 565.468 291.893C563.755 297.935 562.059 303.993 560.298 310.035C556.809 321.978 553.293 333.922 549.749 345.865C542.728 369.655 535.636 393.397 528.474 417.09C524.899 429.001 521.318 440.901 517.731 452.791C515.92 458.447 514.458 464.209 513.354 470.044C512.393 476.155 512.149 482.357 512.627 488.524C513.402 500.931 514.84 513.321 515.987 525.679C517.134 538.038 518.297 550.493 519.444 562.835C521.727 587.518 523.989 612.213 526.229 636.918C526.519 640.031 526.789 643.159 527.036 646.304C527.117 647.354 526.374 647.483 526.261 646.482C523.595 622.056 520.688 597.356 518.41 572.899C516.132 548.441 513.838 524.242 511.56 499.897C510.995 493.791 510.349 487.668 510.333 481.53C510.371 475.889 511.037 470.27 512.32 464.777Z" fill="#37474F"/>
<path d="M519.121 271.507C523.967 308.435 532.981 377.657 539.621 427.881C555.129 367.027 580.007 271.507 580.007 271.507H519.121Z" fill="#37474F"/>
<path d="M502.159 710.728C506.116 712.02 618.745 710.97 623.009 708.208C624.625 707.174 625.449 690.761 625.836 670.891C625.836 670.681 625.836 670.471 625.836 670.261C625.933 666.174 625.998 661.958 626.014 657.677C626.014 657.095 626.014 656.514 626.014 655.916C626.273 627.242 624.205 597.486 624.205 597.486L550.589 597.97L552.641 655.851L552.722 658.145L553.126 670.132V671.359C553.126 671.359 510.187 691.052 505.826 694.589C501.464 698.127 498.217 709.484 502.159 710.728Z" fill="#FEC68E"/>
<path d="M502.159 710.728C506.116 712.02 618.745 710.97 623.009 708.208C624.625 707.174 625.449 690.761 625.836 670.891C625.836 670.681 625.836 670.471 625.836 670.261C625.933 666.174 625.998 661.958 626.014 657.677C626.014 657.095 626.014 656.514 626.014 655.916H552.641L552.722 658.21L553.126 670.196V671.424C553.126 671.424 510.187 691.116 505.826 694.654C501.464 698.192 498.217 709.484 502.159 710.728Z" fill="#EBEBEB"/>
<path d="M502.159 710.728C506.116 712.02 618.745 710.97 623.009 708.208C624.625 707.174 625.449 690.761 625.836 670.891C625.836 670.681 625.836 670.471 625.836 670.261L553.142 670.132V671.36C553.142 671.36 510.203 691.052 505.842 694.59C501.48 698.127 498.217 709.484 502.159 710.728Z" fill="#A6A6A6"/>
<path d="M503.402 706.35C522.384 705.704 599.004 704.912 617.808 705.704C617.969 705.704 617.969 705.817 617.808 705.833C599.02 706.883 522.384 707.061 503.402 706.657C502.966 706.657 502.966 706.366 503.402 706.35Z" fill="#263238"/>
<path d="M545.097 670.423C552.544 668.953 561.704 670.019 567.455 675.269C567.681 675.479 567.455 675.786 567.148 675.705C559.985 673.471 552.603 672.009 545.129 671.343C545.021 671.327 544.922 671.274 544.849 671.192C544.776 671.11 544.734 671.006 544.73 670.896C544.726 670.787 544.761 670.68 544.828 670.593C544.895 670.507 544.99 670.446 545.097 670.423Z" fill="#263238"/>
<path d="M539.734 673.718C547.181 672.248 556.34 673.314 562.091 678.564C562.317 678.774 562.091 679.081 561.784 679.017C554.622 676.777 547.24 675.309 539.766 674.639C539.658 674.623 539.558 674.569 539.485 674.488C539.413 674.406 539.371 674.301 539.367 674.192C539.363 674.083 539.397 673.975 539.464 673.889C539.532 673.802 539.627 673.742 539.734 673.718Z" fill="#263238"/>
<path d="M534.37 677.014C541.818 675.56 550.977 676.61 556.728 681.86C556.954 682.054 556.728 682.377 556.421 682.296C549.26 680.054 541.878 678.592 534.403 677.934C534.305 677.906 534.218 677.847 534.155 677.767C534.092 677.686 534.056 677.588 534.053 677.486C534.049 677.384 534.078 677.283 534.135 677.198C534.192 677.113 534.274 677.049 534.37 677.014Z" fill="#263238"/>
<path d="M513.467 271.507C513.467 271.507 515.082 304.397 522.578 330.454C523.175 332.602 523.838 334.735 524.549 336.754C531.448 339.54 538.077 342.952 544.354 346.948C544.354 346.948 545.145 373.408 545.969 402.922C546.858 435.91 547.762 472.709 547.585 480.463C546.89 509.654 551.236 670.245 551.236 670.245L632.331 670.568C632.331 670.568 617.662 491.255 617.792 480.544C617.937 463.356 613.85 387.35 610.7 331.924C609.582 311.633 607.05 291.445 603.123 271.507H513.467Z" fill="#263238"/>
<path d="M553.982 655.884C566.372 655.674 562.802 655.561 575.193 655.496C581.267 655.496 621.103 655.286 626.773 656.239C626.887 656.239 626.887 656.465 626.773 656.498C621.103 657.402 581.25 656.885 575.193 656.805C562.802 656.627 566.356 656.546 553.982 656.239C553.935 656.239 553.89 656.22 553.856 656.187C553.823 656.154 553.804 656.109 553.804 656.061C553.804 656.014 553.823 655.969 553.856 655.936C553.89 655.902 553.935 655.884 553.982 655.884Z" fill="#37474F"/>
<path d="M600.329 283.267C601.815 328.499 603.398 373.731 605.417 418.964C607.437 464.196 618.115 626.79 620.845 652.023C620.845 652.184 620.602 652.249 620.57 652.023C614.674 607.13 611.378 540.703 608.47 495.535C605.563 450.368 603.624 405.071 602.009 359.839C601.153 334.25 600.474 308.662 599.715 283.073C599.747 282.879 600.313 282.912 600.329 283.267Z" fill="#37474F"/>
<path d="M521.172 334.799C529.237 338.169 536.993 342.234 544.354 346.948C544.416 346.98 544.463 347.035 544.484 347.102C544.505 347.168 544.499 347.241 544.467 347.303C544.435 347.365 544.379 347.412 544.313 347.433C544.246 347.454 544.174 347.448 544.112 347.416C536.293 343.62 528.296 339.969 520.704 335.736C520.58 335.674 520.485 335.565 520.441 335.434C520.397 335.302 520.407 335.158 520.47 335.034C520.532 334.909 520.641 334.815 520.772 334.771C520.904 334.727 521.048 334.737 521.172 334.799Z" fill="#37474F"/>
<path d="M520.736 306.901C521.269 309.776 521.964 312.636 522.594 315.495C523.224 318.354 523.612 320.923 524.322 323.572C524.893 326.146 526.201 328.498 528.086 330.341C529.136 331.326 530.299 332.199 531.43 333.087C532.028 333.572 532.69 334.04 533.32 334.541C533.32 334.153 533.175 333.766 533.094 333.378C532.9 332.279 532.723 331.181 532.545 330.147C532.125 327.708 531.737 325.301 531.366 322.845C530.639 317.999 529.96 313.233 528.975 308.5C528.975 308.462 528.99 308.425 529.017 308.397C529.045 308.37 529.082 308.355 529.12 308.355C529.159 308.355 529.196 308.37 529.223 308.397C529.25 308.425 529.266 308.462 529.266 308.5C530.461 313.201 531.77 317.837 532.803 322.571C533.32 324.897 535.13 336.35 535.21 337.109C535.291 337.869 535.372 338.725 535.404 339.63C535.509 340.483 535.509 341.345 535.404 342.198C535.388 342.236 535.361 342.269 535.327 342.292C535.292 342.315 535.252 342.327 535.21 342.327C535.169 342.327 535.128 342.315 535.094 342.292C535.059 342.269 535.033 342.236 535.017 342.198C534.668 341.404 534.423 340.568 534.29 339.71C534.08 338.886 533.886 338.095 533.74 337.223C533.74 336.932 533.643 336.625 533.611 336.318C532.48 335.623 531.43 334.702 530.38 333.959C529.33 333.216 528.07 332.344 527.004 331.423C525.009 329.735 523.573 327.482 522.885 324.961C522.195 322.26 521.746 319.503 521.544 316.723C521.172 313.492 520.914 310.261 520.445 307.03C520.397 306.772 520.736 306.707 520.736 306.901Z" fill="#37474F"/>
<path d="M547.31 184.031C541.43 203.287 525.502 243.172 510.155 248.648C491.949 255.223 440.514 223.415 423.212 205.661C416.928 199.2 444.213 171.253 451.531 174.823C458.849 178.393 500.543 209.183 502.95 207.778C507.021 205.403 515.615 195.791 530.865 180.089C546.115 164.387 550.137 174.774 547.31 184.031Z" fill="#FEC68E"/>
<path d="M438.995 214.918C444.245 215.629 462.645 187.1 459.996 182.351C455.8 173.465 453.49 163.806 453.211 153.984C453.324 145.002 454.519 131.674 449.689 131.367C442.646 130.996 439.108 147.667 437.67 157.36C433.47 154.129 429.593 151.657 426.734 151.092C417.429 149.186 403.665 189.685 409.852 197.116C415.83 204.337 433.761 214.191 438.995 214.918Z" fill="#FEC68E"/>
<path d="M425.243 185.668L433.715 188.552L446.387 151.33L437.915 148.446L425.243 185.668Z" fill="#C7C7C7"/>
<path d="M414.327 210.637L427.138 214.999L438.365 181.995L425.571 177.634L414.327 210.637Z" fill="#263238"/>
<path d="M440.514 157.004C441.257 161.851 435.069 159.977 435.069 159.977C435.069 159.977 443.308 164.823 442.129 170.219C440.95 175.614 433.583 172.771 433.05 172.593C433.486 172.852 440.934 177.553 439.205 182.787C437.476 188.021 430.417 184.402 429.965 184.111C430.304 184.483 434.601 189.539 432.372 193.222C428.543 199.539 417.219 186.906 411.242 186.842C411.242 186.842 409.966 196.954 409.852 197.229C409.852 197.229 398.835 185.436 399.384 177.375C399.445 176.197 399.905 175.075 400.69 174.194C401.474 173.313 402.535 172.726 403.698 172.529C403.698 172.529 399.724 169.12 400.951 164.952C401.598 162.82 405.588 161.948 405.588 161.948C404.735 161.132 404.121 160.099 403.814 158.96C403.506 157.821 403.516 156.62 403.843 155.486C404.893 152.578 408.689 152.158 408.689 152.158C408.689 152.158 407.074 148.039 409.061 145.422C413.213 140.058 438.898 146.488 440.514 157.004Z" fill="#FEC68E"/>
<path d="M409.271 151.932C409.174 151.932 409.174 151.787 409.271 151.787C418.596 151.809 427.695 154.666 435.36 159.977C435.586 160.154 435.36 160.623 435.118 160.478C426.964 156.386 418.257 153.507 409.271 151.932Z" fill="#263238"/>
<path d="M405.475 161.851C405.362 161.851 405.475 161.657 405.475 161.673C415.749 161.785 425.643 165.58 433.357 172.367C433.632 172.61 433.616 173.094 433.357 172.836C427.865 168.458 413.923 163.192 405.475 161.851Z" fill="#263238"/>
<path d="M430.272 184.725C422.663 178.167 413.713 174.71 404.005 172.48C403.875 172.48 404.005 172.27 404.005 172.27C409.045 172.076 415.087 174.144 419.642 176.147C423.909 177.929 427.635 180.798 430.449 184.467C430.676 184.612 430.498 184.871 430.272 184.725Z" fill="#263238"/>
<path d="M435.231 159.864C435.522 160.074 434.892 160.251 435.231 160.478C436.394 161.398 443.001 167.553 441.596 170.461C440.465 172.771 436.572 172.868 435.053 172.319L431.257 170.929L434.343 173.563C435.729 174.71 436.914 176.08 437.848 177.617C438.338 178.313 438.672 179.106 438.828 179.942C438.984 180.778 438.958 181.638 438.753 182.464C438.559 183.213 438.116 183.874 437.496 184.338C436.877 184.802 436.118 185.041 435.344 185.016C433.618 184.896 431.951 184.34 430.498 183.401L426.362 180.977L429.464 184.612C430.328 185.619 431.061 186.732 431.645 187.924C432.25 189.034 432.509 190.3 432.388 191.559C432.298 192.122 432.053 192.65 431.679 193.081C431.305 193.512 430.817 193.83 430.272 193.998C429.01 194.226 427.708 194.086 426.524 193.594C423.91 192.587 421.382 191.372 418.964 189.959C417.736 189.281 416.492 188.602 415.216 187.988C413.978 187.3 412.606 186.887 411.193 186.777C412.57 187.053 413.877 187.603 415.038 188.392C416.25 189.087 417.429 189.846 418.608 190.606C420.949 192.216 423.437 193.601 426.039 194.741C427.447 195.37 429.005 195.583 430.53 195.355C431.357 195.149 432.105 194.703 432.68 194.074C433.254 193.444 433.631 192.659 433.761 191.817C433.95 190.264 433.674 188.69 432.969 187.294C432.34 185.954 431.542 184.7 430.595 183.562L429.561 184.774C431.279 185.9 433.261 186.557 435.312 186.68C436.451 186.716 437.566 186.35 438.462 185.646C439.329 184.942 439.961 183.989 440.271 182.916C440.52 181.886 440.549 180.815 440.354 179.774C440.159 178.733 439.745 177.744 439.14 176.874C438.084 175.203 436.757 173.718 435.215 172.48L434.504 173.708C436.443 174.354 440.82 174.726 443.017 171.333C445.214 166.455 436.83 160.785 435.231 159.864Z" fill="#263238"/>
<path d="M435.118 159.912C436.132 160.022 437.156 159.973 438.155 159.767C438.555 159.695 438.929 159.518 439.239 159.254C439.548 158.99 439.782 158.648 439.916 158.264C440.092 157.382 440.008 156.467 439.674 155.631C439.336 154.643 438.948 153.672 438.51 152.723C439.391 153.389 440.122 154.231 440.659 155.195C441.3 156.238 441.508 157.49 441.241 158.684C441.025 159.328 440.619 159.891 440.077 160.3C439.547 160.646 438.933 160.842 438.3 160.865C437.165 160.894 436.051 160.56 435.118 159.912Z" fill="#263238"/>
<path d="M464.487 180.057L431.419 221.283C431.419 221.283 485.471 260.829 511.48 250.894C517.473 248.6 537.827 223.35 548.134 186.745C551.09 176.26 547.536 157.408 527.537 179.944C507.538 202.479 503.209 206.162 502.304 206.211C501.399 206.259 464.487 180.057 464.487 180.057Z" fill="#EBEBEB"/>
<path d="M443.712 225.87C445.844 222.494 448.478 219.409 450.933 216.178C453.389 212.947 455.779 209.991 458.251 206.921C463.21 200.734 468.057 194.369 473.42 188.505C473.444 188.473 473.479 188.452 473.518 188.446C473.558 188.44 473.598 188.45 473.63 188.473C473.662 188.497 473.684 188.532 473.69 188.571C473.696 188.611 473.686 188.651 473.662 188.683C469.284 195.387 464.196 201.607 459.236 207.955C456.749 211.089 454.218 214.202 451.644 217.293C449.24 220.342 446.668 223.254 443.938 226.016C443.809 226.21 443.631 226.016 443.712 225.87Z" fill="#263238"/>
<path opacity="0.1" d="M548.199 186.745C537.892 223.35 517.505 248.6 511.544 250.894C505.583 253.188 497.005 252.897 487.781 250.377C503.936 225.903 529.783 186.793 541.85 169.427C549.119 168.312 550.169 179.621 548.199 186.745Z" fill="black"/>
<path d="M501.464 299.534L610.296 305.851C610.296 305.851 597.372 210.039 562.786 173.094C558.505 168.539 547.908 168.49 540.719 171.253C538.151 172.238 528.91 184.451 525.292 195.856C521.673 207.261 501.222 299.163 501.464 299.534Z" fill="#F56A30"/>
<path d="M544.499 196.599L541.866 188.667L534.661 194.192L535.404 199.959L541.091 201.429L544.499 196.599Z" fill="#263238"/>
<path d="M541.091 201.429L535.582 266.644L525.259 286.11L519.654 263.462L535.404 199.959L541.091 201.429Z" fill="#263238"/>
<path d="M558.634 170.752C554.986 190.88 552.58 211.214 551.429 231.638C548.199 309.486 554.16 447.622 556.276 457.686C557.52 463.453 624.512 453.082 624.512 453.082C624.512 453.082 618.405 293.59 596.112 231.008C575.499 172.981 558.634 170.752 558.634 170.752Z" fill="#EBEBEB"/>
<path d="M609.036 344.896C601.437 345.945 593.783 346.544 586.113 346.689C575.386 346.689 564.741 345.639 561.671 345.607C561.397 345.607 561.251 346.495 561.445 346.527C569.569 347.52 577.737 348.102 585.919 348.272C593.408 348.217 600.878 347.509 608.244 346.156C608.244 348.418 608.244 350.195 608.244 352.472C600.684 353.926 586.097 356.462 562.527 353.425C562.527 352.472 562.527 347.416 562.382 346.027C562.382 345.817 561.477 345.784 561.445 346.107C561.251 347.464 560.702 359.629 560.686 362.1C560.686 368.174 561.041 385.379 562.56 388.707C566.001 396.251 580.669 396.267 584.74 396.299C588.811 396.331 601.912 396.735 606.823 391.937C609.44 389.369 610.054 375.444 609.617 363.118C609.391 357.222 609.375 345.009 609.036 344.896ZM585.871 394.748C572.947 394.748 567.228 392.05 565.225 389.337C562.899 386.106 562.705 380.678 562.527 374.604C562.382 369.838 562.527 354.879 562.527 354.588C570.088 356.123 590.071 358.191 608.212 353.975C608.212 361.05 608.212 366.72 608.212 373.812C608.212 378.933 607.889 387.543 605.288 390.532C603.123 393.036 595.256 394.732 585.871 394.748Z" fill="#DBDBDB"/>
<path d="M538.813 171.349C538.813 171.349 521.835 231.508 519.977 240.813C518.119 250.118 503.823 442.84 500.414 449.738C499.283 452.064 459.107 437.848 459.107 437.848C459.107 437.848 519.686 205.468 524.419 194.353C531.64 177.424 538.813 171.349 538.813 171.349Z" fill="#EBEBEB"/>
<path d="M569.845 180.251C597.389 208.828 620.667 251.831 617.646 275.319C614.642 298.533 606.887 295.157 604.626 294.704C590.749 291.845 568.101 225.951 561.623 198.295C555.694 173.046 563.028 173.159 569.845 180.251Z" fill="#EBEBEB"/>
<path d="M588.585 274.01C587.373 270.877 586.113 267.759 584.934 264.593L581.331 255.158C578.957 248.858 576.485 242.574 574.272 236.242C572.059 229.909 569.635 223.609 567.406 217.26C566.275 214.094 565.198 210.912 564.175 207.713C563.077 204.482 562.124 201.251 561.138 198.02C562.475 204.642 564.179 211.184 566.243 217.616C568.23 224.077 570.492 230.41 572.705 236.759C574.918 243.107 577.551 249.359 580.136 255.578C582.72 261.798 585.451 268.017 588.585 274.01Z" fill="#263238"/>
<path d="M563.238 206.291C562.81 205.185 562.313 204.106 561.752 203.061C561.477 202.527 561.203 201.994 560.896 201.445C560.619 200.887 560.306 200.347 559.959 199.83C560.074 201.058 560.436 202.251 561.025 203.335C561.577 204.447 562.327 205.449 563.238 206.291Z" fill="#263238"/>
<path d="M540.574 197.623L474.2 213.73L495.168 300.136L561.542 284.029L540.574 197.623Z" fill="#F56A30"/>
<path opacity="0.4" d="M540.574 197.623L474.2 213.73L495.168 300.136L561.542 284.029L540.574 197.623Z" fill="black"/>
<path d="M522.329 197.304L490.861 204.906L493.163 214.437L524.631 206.836L522.329 197.304Z" fill="#C7C7C7"/>
<path d="M515.195 199.054L511.318 199.975L510.252 195.581L500.834 197.859L501.9 202.253L498.023 203.19L496.085 195.177L513.305 191.025L515.195 199.054Z" fill="#C7C7C7"/>
<path d="M608.939 294.494C598.632 296.74 585.014 289.648 549.394 267.678C544.467 264.625 556.583 224.061 562.01 227.066C568.844 230.814 594.578 246.839 596.306 248.26C610.926 260.15 615.934 292.976 608.939 294.494Z" fill="#FEC68E"/>
<path d="M574.966 238.035C574.966 238.035 564.337 225.305 556.663 220.362C548.565 215.429 539.391 212.535 529.928 211.929C519.718 211.235 494.534 216.598 494.808 224.126C495.067 230.927 520.526 224.126 520.526 224.126C520.526 224.126 493.435 226.759 495.245 234.901C497.054 243.043 526.164 233.495 526.164 233.495C526.164 233.495 498.379 236.823 501.577 244.916C503.984 251.039 530.849 243.883 530.849 243.883C530.849 243.883 506.973 246.903 509.186 253.301C511.641 260.376 536.842 255.32 536.842 255.32C545.21 270.65 555.791 274.334 563.4 276.224C565.258 276.644 574.966 238.035 574.966 238.035Z" fill="#FEC68E"/>
<path d="M529.847 222.591C526.616 222.785 523.385 222.963 520.252 223.431C517.118 223.9 513.935 224.497 510.817 225.273C506.739 226.207 502.779 227.594 499.008 229.408C505.939 226.662 517.247 224.772 520.413 224.304C523.579 223.835 526.713 223.189 529.863 222.688L529.847 222.591Z" fill="#263238"/>
<path d="M531.786 233.996C527.715 234.416 523.708 234.691 519.605 235.289C515.502 235.886 511.803 236.823 507.813 237.695C507.506 237.695 507.651 237.905 507.958 237.841C511.98 237.13 515.744 236.775 519.751 236.112C523.757 235.45 527.828 234.61 531.802 234.093C531.866 234.077 531.834 233.98 531.786 233.996Z" fill="#263238"/>
<path d="M535.275 243.479C529.02 243.983 522.833 245.125 516.811 246.887C516.504 246.968 516.714 247.13 517.021 247.081C523.143 245.821 527.925 244.803 535.291 243.705C535.275 243.689 535.275 243.479 535.275 243.479Z" fill="#263238"/>
<path d="M574.563 232.671L565.031 282.104C565.031 282.104 603.253 302.943 610.781 293.945C616.968 286.53 609.86 260.441 600.119 250.49C596.064 246.338 574.563 232.671 574.563 232.671Z" fill="#EBEBEB"/>
<path d="M574.239 234.319L574.643 232.704H574.514C578.084 235.192 581.687 237.647 585.224 240.167C588.762 242.687 592.316 245.191 595.725 247.873C597.427 249.17 599.045 250.572 600.571 252.073C602.043 253.63 603.378 255.311 604.561 257.097C606.927 260.73 608.699 264.716 609.811 268.906C609.129 264.56 607.615 260.386 605.353 256.612C604.216 254.708 602.878 252.932 601.363 251.314C599.822 249.739 598.175 248.271 596.435 246.92C592.978 244.238 589.392 241.75 585.757 239.343C582.123 236.936 578.375 234.691 574.562 232.558H574.466V232.671L574.239 234.319Z" fill="#263238"/>
<path d="M583.302 244.076C582.672 246.516 582.236 249.02 581.687 251.491C581.137 253.963 580.75 256.451 580.33 258.939C579.473 263.898 578.633 268.873 577.874 273.865C577.664 275.222 577.454 276.595 577.276 277.952C577.099 279.309 577.066 280.908 576.856 282.362C576.864 282.38 576.876 282.394 576.892 282.405C576.908 282.415 576.926 282.421 576.945 282.421C576.964 282.421 576.983 282.415 576.998 282.405C577.014 282.394 577.027 282.38 577.034 282.362C577.26 281.151 577.664 279.955 577.923 278.744C578.181 277.532 578.423 276.224 578.666 274.964C579.118 272.476 579.554 270.004 579.99 267.516C580.847 262.557 581.606 257.582 582.381 252.574C582.785 249.763 583.254 246.92 583.496 244.093C583.56 243.947 583.334 243.915 583.302 244.076Z" fill="#263238"/>
<path d="M565.968 277.694C565.807 279.196 565.597 280.666 565.403 282.152L565.258 281.845C577.293 287.564 589.489 294.284 602.8 296.061C604.705 296.266 606.631 296.096 608.47 295.56C606.685 296.389 604.737 296.809 602.768 296.788C589.069 296.223 576.453 289.325 564.967 282.346L564.789 282.217C565.177 280.715 565.548 279.196 565.968 277.694Z" fill="#263238"/>
<path d="M543.013 189.394C548.974 190.67 558.941 181.317 562.802 173.95C563.061 173.45 562.172 168.151 561.397 161.673C560.944 157.748 560.524 153.354 560.444 149.331C560.444 148.507 535.291 156.035 535.291 156.035C536.841 161.046 537.774 166.226 538.07 171.463C538.068 172.004 538.025 172.544 537.941 173.078C537.932 173.169 537.932 173.261 537.941 173.353C537.456 176.551 537.262 188.166 543.013 189.394Z" fill="#FEC68E"/>
<path d="M560.767 155.47C551.979 169.249 540.509 168.393 537.86 168.086C537.343 164.003 536.479 159.971 535.275 156.035C535.275 156.035 560.411 148.507 560.427 149.331C560.492 151.318 560.605 153.402 560.767 155.47Z" fill="#263238"/>
<path d="M566.469 118.234C568.537 127.377 561.897 152.869 555.161 158.151C545.323 165.825 530.17 165.502 523.902 153.887C517.812 142.579 527.052 109.559 534.548 104.858C545.517 97.8794 563.416 104.664 566.469 118.234Z" fill="#FEC68E"/>
<path d="M540.008 133.467C540.008 133.467 540.121 133.597 540.105 133.661C539.604 135.277 539.33 137.393 540.735 138.362C540.735 138.362 540.735 138.475 540.735 138.459C538.877 137.7 539.265 135.002 540.008 133.467Z" fill="#263238"/>
<path d="M541.995 132.062C544.822 132.563 543.611 138.168 541.01 137.7C538.409 137.231 539.637 131.658 541.995 132.062Z" fill="#263238"/>
<path d="M529.912 130.931C529.912 130.931 529.766 130.931 529.75 131.06C529.427 132.805 528.781 134.76 527.085 134.986C527.085 134.986 527.085 135.083 527.085 135.099C529.056 135.228 529.896 132.644 529.912 130.931Z" fill="#263238"/>
<path d="M528.813 128.799C526.067 127.991 524.662 133.532 527.198 134.275C529.734 135.018 531.059 129.542 528.813 128.799Z" fill="#263238"/>
<path d="M544.564 130.253C543.812 130.03 543.073 129.766 542.351 129.461C541.531 129.291 540.789 128.86 540.234 128.233C540.104 127.999 540.054 127.729 540.092 127.463C540.13 127.198 540.254 126.952 540.444 126.763C540.875 126.449 541.382 126.254 541.913 126.2C542.444 126.146 542.98 126.235 543.465 126.456C544.516 126.769 545.417 127.452 546.002 128.379C546.121 128.598 546.174 128.848 546.155 129.097C546.135 129.346 546.044 129.585 545.892 129.783C545.739 129.981 545.533 130.131 545.297 130.215C545.062 130.298 544.807 130.311 544.564 130.253Z" fill="#A6A6A6"/>
<path d="M526.907 125.697C527.676 125.862 528.452 125.986 529.233 126.069C530.025 126.336 530.882 126.336 531.673 126.069C531.899 125.93 532.073 125.72 532.167 125.471C532.26 125.222 532.268 124.949 532.19 124.696C531.966 124.211 531.615 123.795 531.174 123.494C530.733 123.192 530.219 123.016 529.686 122.983C528.589 122.715 527.431 122.883 526.455 123.452C526.271 123.6 526.132 123.796 526.052 124.018C525.972 124.24 525.954 124.48 526.001 124.711C526.048 124.943 526.157 125.157 526.317 125.331C526.476 125.505 526.681 125.631 526.907 125.697Z" fill="#A6A6A6"/>
<path d="M538.651 149.299C538.151 149.606 537.617 150.09 537.036 149.993C536.396 149.85 535.795 149.569 535.275 149.17C535.275 149.17 535.146 149.17 535.178 149.17C535.354 149.564 535.632 149.905 535.985 150.155C536.337 150.405 536.751 150.556 537.181 150.591C537.542 150.562 537.886 150.429 538.173 150.208C538.46 149.987 538.676 149.688 538.797 149.347C538.845 149.315 538.732 149.25 538.651 149.299Z" fill="#263238"/>
<path d="M537.941 143.709C537.351 144.299 536.647 144.763 535.872 145.071C535.097 145.38 534.267 145.526 533.433 145.502C532.703 145.483 531.98 145.358 531.285 145.131C531.151 145.104 531.02 145.061 530.897 145.002C530.768 144.967 530.644 144.919 530.526 144.856C530.438 144.821 530.365 144.757 530.318 144.675C530.271 144.593 530.253 144.497 530.267 144.404C530.26 144.345 530.26 144.285 530.267 144.226V144.081C530.51 142.74 531.075 140.737 531.075 140.737C530.542 140.882 527.844 141.464 527.989 140.737C529.438 134.751 531.489 128.927 534.112 123.355C534.127 123.314 534.158 123.281 534.197 123.263C534.236 123.245 534.281 123.243 534.322 123.258C534.363 123.273 534.396 123.303 534.414 123.343C534.432 123.382 534.434 123.427 534.419 123.468C533.127 129.009 530.849 134.275 529.459 139.832C530.428 139.609 531.423 139.522 532.416 139.574C532.593 139.671 531.269 143.435 531.204 144.049C532.267 144.383 533.386 144.503 534.495 144.4C535.605 144.298 536.683 143.975 537.666 143.451C537.957 143.451 538.07 143.596 537.941 143.709Z" fill="#263238"/>
<path d="M532.222 144.63C532.749 145.743 533.556 146.701 534.564 147.409C535.124 147.778 535.784 147.965 536.454 147.942C537.908 147.942 538.215 146.601 538.199 145.454C538.181 144.848 538.095 144.247 537.941 143.661C536.187 144.588 534.183 144.928 532.222 144.63Z" fill="#263238"/>
<path d="M534.564 147.409C535.124 147.778 535.784 147.965 536.454 147.942C537.908 147.942 538.215 146.601 538.199 145.454C537.462 145.323 536.702 145.445 536.042 145.8C535.382 146.155 534.862 146.721 534.564 147.409Z" fill="#FF9ABB"/>
<path d="M561.316 143.289C556.793 141.819 558.828 130.043 558.828 130.043C558.828 130.043 553.449 126.812 553.546 115.811C553.546 115.811 547.682 125.616 528.846 119.785C528.874 116.264 530.004 112.841 532.076 109.995C529.571 112.972 527.313 116.149 525.324 119.494C525.324 119.494 523.709 102.645 538.328 99.4787C544.176 98.2186 552.366 100.189 563.804 108.687C563.804 108.687 567.584 101.595 568.86 102.839C570.136 104.083 566.049 110.625 566.049 110.625C566.049 110.625 571.881 109.914 572.608 111.239C573.335 112.564 567.648 112.854 567.648 112.854C569.97 114.177 571.737 116.29 572.627 118.809C573.517 121.328 573.47 124.083 572.495 126.57C569.522 135.228 563.561 144.081 561.316 143.289Z" fill="#A6A6A6"/>
<path d="M566.146 112.402C568.597 112.76 570.832 114.003 572.43 115.896C574.028 117.788 574.879 120.2 574.821 122.676C574.548 125.537 573.631 128.298 572.139 130.754C570.607 133.343 568.756 135.731 566.631 137.861C566.518 137.991 566.34 137.781 566.453 137.668C568.339 135.647 569.903 133.347 571.089 130.85C572.349 128.527 573.232 126.019 573.706 123.419C574.036 120.992 573.435 118.53 572.024 116.528C570.612 114.526 568.495 113.133 566.098 112.628C565.968 112.644 565.968 112.37 566.146 112.402Z" fill="#A6A6A6"/>
<path d="M549.814 98.8487C552.962 100.187 555.922 101.93 558.618 104.034C561.263 105.92 563.568 108.241 565.435 110.9C565.532 111.045 565.355 111.207 565.241 111.078C560.877 106.636 555.743 103.023 550.089 100.416C544.935 97.8794 538.506 96.7163 533.579 100.416C533.579 100.416 533.401 100.416 533.466 100.286C538.021 96.264 544.564 96.6678 549.814 98.8487Z" fill="#A6A6A6"/>
<path d="M523.967 139.235C521.14 138.443 519.799 134.388 520.978 130.059C522.158 125.73 525.421 122.951 528.248 123.726C531.075 124.502 532.416 128.573 531.237 132.902C530.057 137.231 526.859 139.978 523.967 139.235ZM527.973 124.696C525.712 124.082 523.127 126.586 522.028 130.285C520.93 133.984 522.029 137.506 524.258 138.12C526.487 138.734 529.104 136.246 530.203 132.547C531.301 128.847 530.283 125.358 528.038 124.696H527.973Z" fill="#37474F"/>
<path d="M541.414 144.081C539.823 143.762 538.364 142.97 537.229 141.811C536.094 140.651 535.335 139.176 535.051 137.578C534.766 135.98 534.969 134.334 535.634 132.853C536.299 131.373 537.394 130.127 538.777 129.278C540.16 128.429 541.767 128.016 543.388 128.094C545.009 128.171 546.57 128.735 547.865 129.712C549.161 130.689 550.133 132.034 550.653 133.571C551.174 135.108 551.219 136.767 550.783 138.33C550.297 140.331 549.039 142.058 547.283 143.136C545.528 144.213 543.418 144.553 541.414 144.081ZM545.404 129.542C544.084 129.063 542.651 128.993 541.291 129.341C539.931 129.689 538.708 130.439 537.781 131.494C536.854 132.548 536.267 133.857 536.096 135.25C535.924 136.644 536.177 138.056 536.821 139.303C537.465 140.551 538.47 141.575 539.706 142.242C540.941 142.909 542.348 143.188 543.744 143.043C545.141 142.898 546.46 142.335 547.532 141.428C548.603 140.521 549.376 139.312 549.749 137.958C550.287 136.266 550.132 134.429 549.317 132.851C548.503 131.273 547.095 130.083 545.404 129.542Z" fill="#37474F"/>
<path d="M536.89 133.645C533.385 131.222 531.269 132.03 531.253 132.03L530.849 131.028C530.946 131.028 533.466 129.978 537.504 132.773L536.89 133.645Z" fill="#37474F"/>
<path d="M550.46 137.425L550.541 136.359C551.252 136.359 562.317 136.925 564.062 137.312C565.807 137.7 569.474 141.238 569.878 141.642L569.199 142.465C567.683 140.857 565.922 139.5 563.981 138.443C562.479 138.071 556.421 137.958 550.46 137.425Z" fill="#37474F"/>
<path d="M557.293 141.464C557.293 141.464 563.901 133.677 567.503 136.117C571.105 138.556 565.564 150.22 560.96 151.463C560.381 151.661 559.767 151.739 559.156 151.694C558.546 151.649 557.95 151.481 557.406 151.201C556.862 150.92 556.379 150.533 555.988 150.062C555.597 149.59 555.305 149.045 555.129 148.459L557.293 141.464Z" fill="#FEC68E"/>
<path d="M565.823 139.412V139.542C562.592 140.511 560.67 143.241 559.248 146.133C559.458 145.837 559.729 145.59 560.043 145.41C560.357 145.229 560.707 145.119 561.068 145.087C561.429 145.054 561.793 145.101 562.134 145.223C562.475 145.345 562.786 145.539 563.044 145.793C563.125 145.793 563.044 145.987 562.948 145.955C562.417 145.729 561.829 145.673 561.265 145.794C560.701 145.916 560.188 146.209 559.797 146.633C559.148 147.35 558.58 148.136 558.101 148.976C557.924 149.234 557.439 148.976 557.568 148.733C557.891 144.679 561.526 139.412 565.823 139.412Z" fill="#263238"/>
<path d="M538.07 171.915L542.238 186.325L562.737 171.349L565.807 178.377C565.807 178.377 545.194 202.188 545.275 200.993L541.365 188.845L532.044 195.452L535.695 175.84L538.07 171.915Z" fill="#F56A30"/>
<path d="M533.191 185.646C533.918 182.415 534.548 179.184 535.42 175.953C535.42 175.84 535.647 175.824 535.647 175.953C535.857 179.184 533.046 191.494 532.593 194.483C532.981 194.192 541.171 188.715 541.236 188.829C542.173 190.816 545.065 199.652 545.226 200.444C548.457 196.663 562.14 181.866 565.855 178.377C565.952 178.28 566.13 178.377 566.033 178.522C563.044 182.593 545.339 202.172 545.145 202.075C543.559 197.876 542.2 193.594 541.074 189.249C539.637 190.492 531.253 196.809 531.301 196.324C531.737 192.733 532.368 189.169 533.191 185.646Z" fill="#263238"/>
<path d="M450.982 146.504C449.766 146.443 448.56 146.265 447.379 145.971L446.539 145.745L445.796 145.519L445.279 145.357L437.735 142.595C438.421 142.854 439.122 143.069 439.835 143.241C440.437 143.387 441.046 143.5 441.66 143.58C442.226 143.58 442.824 143.726 443.437 143.758C458.364 144.614 473.178 129.38 476.505 109.834C479.074 94.697 474.098 81.3858 464.842 75.6671C463.689 74.9551 462.466 74.3649 461.191 73.9063L468.751 76.6364C469.074 76.7495 469.381 76.8787 469.704 77.0241L470.512 77.3795L470.884 77.5734L471.481 77.8803L471.821 78.0741C477.62 81.4181 481.82 87.686 483.646 95.5209C483.743 95.9247 483.823 96.3286 483.904 96.7324C484.904 101.949 484.931 107.305 483.985 112.531C480.722 132.127 465.908 147.312 450.982 146.504Z" fill="#37474F"/>
<path d="M417.752 106.425C414.36 126.376 422.178 143.58 435.716 148.556L443.26 151.302C429.722 146.456 421.92 129.122 425.296 109.171C429.222 86.1513 446.604 68.2846 464.067 69.27C465.488 69.354 466.899 69.5648 468.283 69.9C469.11 70.091 469.925 70.3338 470.722 70.627L463.178 67.8969C461.039 67.1165 458.796 66.6592 456.522 66.5399C439.043 65.5383 421.661 83.4212 417.752 106.425Z" fill="#37474F"/>
<path d="M488.734 112.758C492.143 92.7423 484.26 75.4087 470.658 70.5785L469.737 70.2716H469.478C469.107 70.1585 468.735 70.0616 468.348 69.9808C467.669 69.8192 466.991 69.6739 466.296 69.5769C465.601 69.48 464.874 69.3992 464.147 69.3508C446.636 68.3654 429.254 86.2482 425.377 109.252C424.194 115.859 424.336 122.635 425.797 129.187C426.002 130.102 426.244 131.007 426.524 131.9C426.798 132.789 427.089 133.645 427.428 134.501C427.735 135.338 428.086 136.157 428.479 136.957C428.656 137.361 428.85 137.748 429.06 138.152C429.652 139.267 430.31 140.346 431.031 141.383C431.499 142.078 432 142.74 432.517 143.386C434.769 146.24 437.613 148.571 440.853 150.22C441.083 150.346 441.321 150.459 441.564 150.559L442.743 151.076H442.84C443.8 151.463 444.788 151.776 445.796 152.013C447.181 152.341 448.592 152.547 450.012 152.627C467.427 153.66 484.841 135.794 488.734 112.758ZM450.982 146.504C449.766 146.443 448.56 146.265 447.379 145.971L446.539 145.745L445.796 145.519C444.346 145.038 442.958 144.387 441.66 143.58C432.388 137.878 427.412 124.566 429.981 109.43C433.309 89.8184 448.138 74.5848 463.065 75.5056C463.663 75.5056 464.26 75.6025 464.842 75.6833C465.451 75.7636 466.055 75.8768 466.651 76.0225C467.362 76.1961 468.063 76.4064 468.751 76.6525C469.074 76.7656 469.381 76.8949 469.704 77.0403L470.512 77.3956L470.884 77.5895L471.481 77.8964L471.821 78.0903C477.62 81.4342 481.82 87.7021 483.646 95.537C483.743 95.9409 483.823 96.3447 483.904 96.7486C484.904 101.965 484.931 107.321 483.985 112.548C480.722 132.127 465.908 147.312 450.982 146.504Z" fill="#455A64"/>
<path opacity="0.4" d="M443.437 143.758C442.824 143.758 442.226 143.661 441.66 143.58C432.388 137.878 427.412 124.566 429.981 109.43C433.309 89.8184 448.138 74.5848 463.065 75.5056C463.663 75.5056 464.26 75.6025 464.842 75.6833C474.098 81.402 479.074 94.7132 476.505 109.85C473.178 129.38 458.364 144.614 443.437 143.758Z" fill="white"/>
<g opacity="0.3">
<path d="M475.068 89.156L433.26 98.3802C434.239 96.0623 435.4 93.826 436.733 91.6923L472.628 83.7605C473.617 85.4746 474.434 87.2819 475.068 89.156Z" fill="#EBEBEB"/>
<path d="M467.782 77.848L443.922 83.1143C449.576 77.9934 456.312 75.0371 463.065 75.4571C463.663 75.4571 464.26 75.554 464.842 75.6348C465.887 76.282 466.871 77.0227 467.782 77.848Z" fill="#EBEBEB"/>
<path d="M476.295 93.3885L431.435 103.291C431.758 102.225 432.129 101.159 432.517 100.06L475.585 90.5615C475.859 91.5146 476.102 92.3869 476.295 93.3885Z" fill="#EBEBEB"/>
<path d="M466.635 131.82C465.584 133.119 464.451 134.349 463.243 135.503L438.349 140.995C437.53 140.251 436.773 139.441 436.087 138.572L466.635 131.82Z" fill="#EBEBEB"/>
<path d="M473.258 120.802L431.386 130.043C430.093 126.275 429.395 122.329 429.319 118.347L476.78 107.863C476.699 108.493 476.602 109.123 476.505 109.769C475.858 113.561 474.768 117.264 473.258 120.802Z" fill="#EBEBEB"/>
</g>
<path d="M650.698 84.7459C650.698 90.92 648.983 96.9727 645.744 102.229C642.505 107.485 637.87 111.739 632.355 114.515C626.84 117.291 620.663 118.48 614.511 117.95C608.36 117.42 602.477 115.192 597.518 111.514L581.186 115.681L587.987 100.464C585.597 95.9967 584.256 91.0432 584.068 85.9802C583.88 80.9171 584.848 75.8777 586.9 71.2452C588.952 66.6127 592.033 62.509 595.909 59.2462C599.786 55.9833 604.355 53.6472 609.269 52.4154C614.184 51.1836 619.314 51.0885 624.271 52.1375C629.228 53.1864 633.88 55.3517 637.875 58.4688C641.869 61.5859 645.1 65.5726 647.322 70.1259C649.544 74.6793 650.699 79.6793 650.698 84.7459Z" fill="white"/>
<path d="M650.698 84.7459C651.005 103.953 633.574 120.011 614.464 118.331C608.222 117.859 602.236 115.655 597.179 111.966L597.663 112.063L581.363 116.36L579.942 116.732L580.54 115.391L587.276 100.157V100.836C583.613 93.9556 582.431 86.024 583.928 78.3747C585.426 70.7254 589.511 63.8251 595.499 58.8343C617.388 40.7737 650.666 56.4111 650.666 84.7782L650.698 84.7459ZM650.698 84.7459C650.795 63.4544 629.956 47.2193 609.375 52.8733C589.15 57.8812 578.682 81.8381 588.665 100.109L588.859 100.448L588.698 100.787L581.832 115.956L581.008 114.987L597.372 110.948H597.647L597.857 111.11C619.504 127.507 650.569 111.901 650.698 84.8105V84.7459Z" fill="#263238"/>
<path d="M611.976 104.583L597.033 89.463L602.057 84.5036L610.781 93.34L628.906 64.9083L634.851 68.7046L611.976 104.583Z" fill="#F56A30"/>
</svg>
