<svg width="135" height="147" viewBox="0 0 135 147" fill="none" xmlns="http://www.w3.org/2000/svg">
<path fill-rule="evenodd" clip-rule="evenodd" d="M76 62.5L0 0V97.5L0.0426104 97.4804C0.0142987 98.1501 0 98.8234 0 99.5C0 125.457 21.0426 146.5 47 146.5C72.9574 146.5 94 125.457 94 99.5C94 84.4815 86.9558 71.1083 75.9912 62.504L76 62.5Z" fill="#FDBA74" fill-opacity="0.9"/>
<path fill-rule="evenodd" clip-rule="evenodd" d="M117 62.5L41 0V97.5L41.0426 97.4804C41.0143 98.1501 41 98.8234 41 99.5C41 125.457 62.0426 146.5 88 146.5C113.957 146.5 135 125.457 135 99.5C135 84.4815 127.956 71.1083 116.991 62.504L117 62.5Z" fill="#EA580C" fill-opacity="0.7"/>
</svg>
