<svg width="597" height="223" viewBox="0 0 597 223" fill="none" xmlns="http://www.w3.org/2000/svg">
<g clip-path="url(#clip0_99_257)">
<path d="M184.1 158V142.7H204.35V80.45H184.1V65.15H243.05V80.45H222.95V142.7H243.05V158H184.1ZM260.45 89.75C263.75 88.85 267.8 88 272.6 87.2C277.5 86.4 282.8 86 288.5 86C294.1 86 298.75 86.8 302.45 88.4C306.15 89.9 309.05 92.1 311.15 95C313.35 97.8 314.9 101.2 315.8 105.2C316.7 109.1 317.15 113.45 317.15 118.25V158H298.7V120.65C298.7 114.05 297.95 109.3 296.45 106.4C294.95 103.5 291.9 102.05 287.3 102.05C285.9 102.05 284.5 102.1 283.1 102.2C281.8 102.3 280.4 102.45 278.9 102.65V158H260.45V89.75ZM354.05 115.4C355.85 113.3 357.65 111.1 359.45 108.8C361.35 106.4 363.15 103.95 364.85 101.45C366.65 98.95 368.35 96.55 369.95 94.25C371.55 91.85 372.95 89.6 374.15 87.5H396.35C394.55 89.8 392.5 92.3 390.2 95C387.9 97.7 385.5 100.45 383 103.25C380.6 106.05 378.15 108.75 375.65 111.35C373.25 113.95 371.05 116.35 369.05 118.55C371.55 120.95 374.25 123.85 377.15 127.25C380.05 130.55 382.9 134 385.7 137.6C388.5 141.2 391.05 144.8 393.35 148.4C395.75 152 397.65 155.2 399.05 158H377.9C376.7 155.5 375.1 152.7 373.1 149.6C371.2 146.4 369.15 143.3 366.95 140.3C364.75 137.2 362.5 134.3 360.2 131.6C358 128.8 355.95 126.5 354.05 124.7V158H335.45V57.05L354.05 53.9V115.4ZM405.65 123.35C405.65 117.15 406.6 111.7 408.5 107C410.4 102.3 412.9 98.4 416 95.3C419.1 92.1 422.65 89.7 426.65 88.1C430.65 86.5 434.75 85.7 438.95 85.7C449.35 85.7 457.25 88.8 462.65 95C468.05 101.1 470.75 110.05 470.75 121.85C470.75 123.05 470.7 124.3 470.6 125.6C470.6 126.9 470.55 127.95 470.45 128.75H424.7C424.7 133.35 426.6 137 430.4 139.7C434.2 142.3 439.1 143.6 445.1 143.6C448.8 143.6 452.3 143.2 455.6 142.4C459 141.6 461.85 140.8 464.15 140L466.7 155.75C463.5 156.85 460.1 157.75 456.5 158.45C452.9 159.25 448.85 159.65 444.35 159.65C438.35 159.65 432.95 158.9 428.15 157.4C423.45 155.8 419.4 153.5 416 150.5C412.7 147.4 410.15 143.6 408.35 139.1C406.55 134.6 405.65 129.35 405.65 123.35ZM452.9 116C452.9 114.1 452.65 112.3 452.15 110.6C451.65 108.8 450.85 107.2 449.75 105.8C448.65 104.4 447.25 103.3 445.55 102.5C443.85 101.6 441.75 101.15 439.25 101.15C436.85 101.15 434.75 101.55 432.95 102.35C431.25 103.15 429.8 104.25 428.6 105.65C427.5 107.05 426.6 108.65 425.9 110.45C425.3 112.25 424.9 114.1 424.7 116H452.9ZM498.95 122.3C498.95 128.6 500.1 133.75 502.4 137.75C504.8 141.75 508.6 143.75 513.8 143.75C515.3 143.75 516.7 143.7 518 143.6C519.3 143.5 520.65 143.35 522.05 143.15V104.75C520.65 103.95 519.05 103.3 517.25 102.8C515.45 102.2 513.55 101.9 511.55 101.9C507.15 101.9 503.95 103.65 501.95 107.15C499.95 110.65 498.95 115.7 498.95 122.3ZM540.5 155.9C537.1 157 532.95 157.9 528.05 158.6C523.15 159.3 518.35 159.65 513.65 159.65C502.65 159.65 494.3 156.4 488.6 149.9C483 143.4 480.2 134.5 480.2 123.2C480.2 111.7 482.55 102.65 487.25 96.05C492.05 89.35 499.1 86 508.4 86C510.9 86 513.35 86.3 515.75 86.9C518.15 87.4 520.25 88.15 522.05 89.15V57.05L540.5 53.9V155.9Z" fill="white"/>
<path fill-rule="evenodd" clip-rule="evenodd" d="M99 100.5L23 38V135.5L23.0426 135.48C23.0143 136.15 23 136.823 23 137.5C23 163.457 44.0426 184.5 70 184.5C95.9574 184.5 117 163.457 117 137.5C117 122.482 109.956 109.108 98.9912 100.504L99 100.5Z" fill="#FDBA74" fill-opacity="0.9"/>
<path fill-rule="evenodd" clip-rule="evenodd" d="M140 100.5L64 38V135.5L64.0426 135.48C64.0143 136.15 64 136.823 64 137.5C64 163.457 85.0426 184.5 111 184.5C136.957 184.5 158 163.457 158 137.5C158 122.482 150.956 109.108 139.991 100.504L140 100.5Z" fill="#EA580C" fill-opacity="0.7"/>
</g>
<defs>
<clipPath id="clip0_99_257">
<rect width="597" height="223" fill="white"/>
</clipPath>
</defs>
</svg>
